<?xml version="1.0" encoding="UTF-8"?><svg id="Layer_5" xmlns="http://www.w3.org/2000/svg" viewBox="0 0 96.09 342.49"><defs><style>.cls-1{fill:#000;}.cls-1,.cls-2,.cls-3,.cls-4,.cls-5{stroke-width:0px;}.cls-2{fill:#07b14c;}.cls-3{fill:none;}.cls-4{fill:#74c044;}.cls-5{fill:#fff;}</style></defs><circle class="cls-3" cx="48.59" cy="303.28" r="10.96"/><path class="cls-4" d="M9.04,48.35c-.15,1.4-.23,2.82-.23,4.25v-4.25h.23Z"/><path class="cls-4" d="M88.37,48.35v4.25c0-1.43-.08-2.85-.23-4.25h.23Z"/><circle class="cls-3" cx="62.74" cy="278.71" r="10.96" transform="translate(-178.7 126) rotate(-45)"/><path class="cls-3" d="M48.59,292.31c-6.06,0-10.96,4.91-10.96,10.97s4.9,10.96,10.96,10.96,10.96-4.91,10.96-10.96-4.91-10.97-10.96-10.97Z"/><circle class="cls-3" cx="33.68" cy="278.71" r="10.96" transform="translate(-63.13 15.19) rotate(-13.28)"/><path class="cls-2" d="M88.37,52.6c0-1.43-.08-2.85-.23-4.25-2.12-19.97-19.02-35.53-39.55-35.53S11.16,28.38,9.04,48.35c-.15,1.4-.23,2.82-.23,4.25v237.07h.04c-.02.59-.04,1.19-.04,1.79,0,21.97,17.81,39.78,39.78,39.78s39.78-17.81,39.78-39.78c0-.6-.02-1.2-.05-1.79h.05V52.6ZM22.72,278.71c0-6.05,4.91-10.96,10.96-10.96s10.96,4.91,10.96,10.96-4.91,10.96-10.96,10.96-10.96-4.91-10.96-10.96ZM48.59,314.24c-6.06,0-10.96-4.91-10.96-10.96s4.9-10.97,10.96-10.97,10.96,4.91,10.96,10.97-4.91,10.96-10.96,10.96ZM62.74,289.67c-6.06,0-10.96-4.91-10.96-10.96s4.9-10.96,10.96-10.96,10.96,4.91,10.96,10.96-4.91,10.96-10.96,10.96ZM74.27,241.43c0,1.64-1.34,2.98-2.98,2.98H24.8c-1.64,0-2.98-1.34-2.98-2.98v-103.75c0-1.64,1.34-2.98,2.98-2.98h46.49c1.64,0,2.98,1.34,2.98,2.98v103.75Z"/><path class="cls-1" d="M48.05,36.42c3.85,0,6.98-3.12,6.98-6.98h-6.98v6.98Z"/><path class="cls-1" d="M48.05,22.47c-3.85,0-6.98,3.12-6.98,6.98h6.98v-6.98Z"/><path class="cls-5" d="M48.05,22.47v6.98h6.98c0-3.85-3.12-6.98-6.98-6.98Z"/><path class="cls-5" d="M41.07,29.45c0,3.85,3.12,6.98,6.98,6.98v-6.98h-6.98Z"/><path class="cls-1" d="M78.7,262.8c3.85,0,6.98-3.12,6.98-6.98h-6.98v6.98Z"/><path class="cls-1" d="M78.7,248.84c-3.85,0-6.98,3.12-6.98,6.98h6.98v-6.98Z"/><path class="cls-5" d="M78.7,248.84v6.98h6.98c0-3.85-3.12-6.98-6.98-6.98Z"/><path class="cls-5" d="M71.72,255.82c0,3.85,3.12,6.98,6.98,6.98v-6.98h-6.98Z"/><path class="cls-1" d="M19.32,262.8c3.85,0,6.98-3.12,6.98-6.98h-6.98v6.98Z"/><path class="cls-1" d="M19.32,248.84c-3.85,0-6.98,3.12-6.98,6.98h6.98v-6.98Z"/><path class="cls-5" d="M19.32,248.84v6.98h6.98c0-3.85-3.12-6.98-6.98-6.98Z"/><path class="cls-5" d="M12.34,255.82c0,3.85,3.12,6.98,6.98,6.98v-6.98h-6.98Z"/><path class="cls-1" d="M19.32,73.46c3.85,0,6.98-3.12,6.98-6.98h-6.98v6.98Z"/><path class="cls-1" d="M19.32,59.51c-3.85,0-6.98,3.12-6.98,6.98h6.98v-6.98Z"/><path class="cls-5" d="M19.32,59.51v6.98h6.98c0-3.85-3.12-6.98-6.98-6.98Z"/><path class="cls-5" d="M12.34,66.49c0,3.85,3.12,6.98,6.98,6.98v-6.98h-6.98Z"/><path class="cls-1" d="M78.7,73.46c3.85,0,6.98-3.12,6.98-6.98h-6.98v6.98Z"/><path class="cls-1" d="M78.7,59.51c-3.85,0-6.98,3.12-6.98,6.98h6.98v-6.98Z"/><path class="cls-5" d="M78.7,59.51v6.98h6.98c0-3.85-3.12-6.98-6.98-6.98Z"/><path class="cls-5" d="M71.72,66.49c0,3.85,3.12,6.98,6.98,6.98v-6.98h-6.98Z"/></svg>