<?xml version="1.0" encoding="UTF-8"?><svg id="Layer_5" xmlns="http://www.w3.org/2000/svg" viewBox="0 0 66.89 126"><defs><style>.cls-1{fill:#000;}.cls-1,.cls-2,.cls-3{stroke-width:0px;}.cls-2{fill:#3d52a3;}.cls-3{fill:#fff;}</style></defs><rect class="cls-2" x="6.1" y="5.9" width="52.44" height="109.7" rx="2.98" ry="2.98"/><path class="cls-1" d="M33.32,70.23c3.85,0,6.98-3.12,6.98-6.98h-6.98v6.98Z"/><path class="cls-1" d="M33.32,56.27c-3.85,0-6.98,3.12-6.98,6.98h6.98v-6.98Z"/><path class="cls-3" d="M33.32,56.27v6.98h6.98c0-3.85-3.12-6.98-6.98-6.98Z"/><path class="cls-3" d="M26.35,63.25c0,3.85,3.12,6.98,6.98,6.98v-6.98h-6.98Z"/><path class="cls-1" d="M47.1,110.67c3.85,0,6.98-3.12,6.98-6.98h-6.98v6.98Z"/><path class="cls-1" d="M47.1,96.71c-3.85,0-6.98,3.12-6.98,6.98h6.98v-6.98Z"/><path class="cls-3" d="M47.1,96.71v6.98h6.98c0-3.85-3.12-6.98-6.98-6.98Z"/><path class="cls-3" d="M40.12,103.69c0,3.85,3.12,6.98,6.98,6.98v-6.98h-6.98Z"/><path class="cls-1" d="M17.55,110.67c3.85,0,6.98-3.12,6.98-6.98h-6.98v6.98Z"/><path class="cls-1" d="M17.55,96.71c-3.85,0-6.98,3.12-6.98,6.98h6.98v-6.98Z"/><path class="cls-3" d="M17.55,96.71v6.98h6.98c0-3.85-3.12-6.98-6.98-6.98Z"/><path class="cls-3" d="M10.57,103.69c0,3.85,3.12,6.98,6.98,6.98v-6.98h-6.98Z"/><path class="cls-1" d="M17.55,24.78c3.85,0,6.98-3.12,6.98-6.98h-6.98v6.98Z"/><path class="cls-1" d="M17.55,10.83c-3.85,0-6.98,3.12-6.98,6.98h6.98v-6.98Z"/><path class="cls-3" d="M17.55,10.83v6.98h6.98c0-3.85-3.12-6.98-6.98-6.98Z"/><path class="cls-3" d="M10.57,17.81c0,3.85,3.12,6.98,6.98,6.98v-6.98h-6.98Z"/><path class="cls-1" d="M47.1,24.78c3.85,0,6.98-3.12,6.98-6.98h-6.98v6.98Z"/><path class="cls-1" d="M47.1,10.83c-3.85,0-6.98,3.12-6.98,6.98h6.98v-6.98Z"/><path class="cls-3" d="M47.1,10.83v6.98h6.98c0-3.85-3.12-6.98-6.98-6.98Z"/><path class="cls-3" d="M40.12,17.81c0,3.85,3.12,6.98,6.98,6.98v-6.98h-6.98Z"/></svg>