<?xml version="1.0" encoding="UTF-8"?><svg id="Layer_1" xmlns="http://www.w3.org/2000/svg" viewBox="0 0 2313.09 53.7"><defs><style>.cls-1{fill:#4c1752;}.cls-1,.cls-2,.cls-3,.cls-4{opacity:.32;stroke-width:0px;}.cls-2{fill:#193963;}.cls-3{fill:#fcf5e6;}.cls-4{fill:#13623c;}</style></defs><rect class="cls-3" x="0" width="2311.07" height="53.7"/><rect class="cls-4" width="2311.6" height="10.62"/><rect class="cls-4" y="43.08" width="2311.6" height="10.62"/><polygon class="cls-2" points="23.02 16.91 18.35 14.42 13.69 16.91 18.35 21.12 23.02 16.91"/><polygon class="cls-2" points="13.69 36.79 18.35 39.28 23.02 36.79 18.35 32.58 13.69 36.79"/><polygon class="cls-2" points="59.71 16.91 55.04 14.42 50.38 16.91 55.04 21.12 59.71 16.91"/><polygon class="cls-2" points="50.38 36.79 55.04 39.28 59.71 36.79 55.04 32.58 50.38 36.79"/><polygon class="cls-2" points="96.4 16.91 91.73 14.42 87.07 16.91 91.73 21.12 96.4 16.91"/><polygon class="cls-2" points="87.07 36.79 91.73 39.28 96.4 36.79 91.73 32.58 87.07 36.79"/><polygon class="cls-2" points="133.08 16.91 128.42 14.42 123.76 16.91 128.42 21.12 133.08 16.91"/><polygon class="cls-2" points="123.76 36.79 128.42 39.28 133.08 36.79 128.42 32.58 123.76 36.79"/><polygon class="cls-2" points="169.77 16.91 165.11 14.42 160.45 16.91 165.11 21.12 169.77 16.91"/><polygon class="cls-2" points="160.45 36.79 165.11 39.28 169.77 36.79 165.11 32.58 160.45 36.79"/><polygon class="cls-2" points="206.46 16.91 201.8 14.42 197.14 16.91 201.8 21.12 206.46 16.91"/><polygon class="cls-2" points="197.14 36.79 201.8 39.28 206.46 36.79 201.8 32.58 197.14 36.79"/><polygon class="cls-2" points="243.15 16.91 238.49 14.42 233.83 16.91 238.49 21.12 243.15 16.91"/><polygon class="cls-2" points="233.83 36.79 238.49 39.28 243.15 36.79 238.49 32.58 233.83 36.79"/><polygon class="cls-2" points="279.84 16.91 275.18 14.42 270.52 16.91 275.18 21.12 279.84 16.91"/><polygon class="cls-2" points="270.52 36.79 275.18 39.28 279.84 36.79 275.18 32.58 270.52 36.79"/><polygon class="cls-2" points="316.53 16.91 311.87 14.42 307.21 16.91 311.87 21.12 316.53 16.91"/><polygon class="cls-2" points="307.21 36.79 311.87 39.28 316.53 36.79 311.87 32.58 307.21 36.79"/><polygon class="cls-2" points="353.22 16.91 348.56 14.42 343.9 16.91 348.56 21.12 353.22 16.91"/><polygon class="cls-2" points="343.9 36.79 348.56 39.28 353.22 36.79 348.56 32.58 343.9 36.79"/><polygon class="cls-2" points="389.91 16.91 385.25 14.42 380.59 16.91 385.25 21.12 389.91 16.91"/><polygon class="cls-2" points="380.59 36.79 385.25 39.28 389.91 36.79 385.25 32.58 380.59 36.79"/><polygon class="cls-2" points="426.6 16.91 421.94 14.42 417.28 16.91 421.94 21.12 426.6 16.91"/><polygon class="cls-2" points="417.28 36.79 421.94 39.28 426.6 36.79 421.94 32.58 417.28 36.79"/><polygon class="cls-2" points="463.29 16.91 458.63 14.42 453.97 16.91 458.63 21.12 463.29 16.91"/><polygon class="cls-2" points="453.97 36.79 458.63 39.28 463.29 36.79 458.63 32.58 453.97 36.79"/><polygon class="cls-2" points="499.98 16.91 495.32 14.42 490.66 16.91 495.32 21.12 499.98 16.91"/><polygon class="cls-2" points="490.66 36.79 495.32 39.28 499.98 36.79 495.32 32.58 490.66 36.79"/><polygon class="cls-2" points="536.67 16.91 532.01 14.42 527.35 16.91 532.01 21.12 536.67 16.91"/><polygon class="cls-2" points="527.35 36.79 532.01 39.28 536.67 36.79 532.01 32.58 527.35 36.79"/><polygon class="cls-2" points="573.36 16.91 568.7 14.42 564.03 16.91 568.7 21.12 573.36 16.91"/><polygon class="cls-2" points="564.03 36.79 568.7 39.28 573.36 36.79 568.7 32.58 564.03 36.79"/><polygon class="cls-2" points="610.05 16.91 605.39 14.42 600.72 16.91 605.39 21.12 610.05 16.91"/><polygon class="cls-2" points="600.72 36.79 605.39 39.28 610.05 36.79 605.39 32.58 600.72 36.79"/><polygon class="cls-2" points="646.74 16.91 642.08 14.42 637.41 16.91 642.08 21.12 646.74 16.91"/><polygon class="cls-2" points="637.41 36.79 642.08 39.28 646.74 36.79 642.08 32.58 637.41 36.79"/><polygon class="cls-2" points="683.43 16.91 678.77 14.42 674.1 16.91 678.77 21.12 683.43 16.91"/><polygon class="cls-2" points="674.1 36.79 678.76 39.28 683.43 36.79 678.76 32.58 674.1 36.79"/><polygon class="cls-2" points="720.12 16.91 715.45 14.42 710.79 16.91 715.45 21.12 720.12 16.91"/><polygon class="cls-2" points="710.79 36.79 715.45 39.28 720.12 36.79 715.45 32.58 710.79 36.79"/><polygon class="cls-2" points="756.81 16.91 752.14 14.42 747.48 16.91 752.14 21.12 756.81 16.91"/><polygon class="cls-2" points="747.48 36.79 752.14 39.28 756.81 36.79 752.14 32.58 747.48 36.79"/><path class="cls-1" d="M12.13,27.95s-4.63,4.03-5.51,4.03H0v4.89h6.39c1.32,0,8.82-6.81,8.82-6.81l-3.09-2.11Z"/><path class="cls-1" d="M48.82,27.95s-4.63,4.03-5.51,4.03h-13.22c-.88,0-22.36-15.16-23.69-15.16H0v4.89h6.61c.88,0,22.36,15.16,23.69,15.16h12.78c1.32,0,8.82-6.81,8.82-6.81l-3.09-2.11Z"/><path class="cls-1" d="M85.51,27.95s-4.63,4.03-5.51,4.03h-13.22c-.88,0-22.36-15.16-23.69-15.16h-12.78c-1.32,0-8.82,6.81-8.82,6.81l3.09,2.11s4.63-4.03,5.51-4.03h6.61s5.73,0,6.61,0,22.36,15.16,23.69,15.16h12.78c1.32,0,8.82-6.81,8.82-6.81l-3.09-2.11Z"/><path class="cls-1" d="M122.2,27.95s-4.63,4.03-5.51,4.03h-13.22c-.88,0-22.36-15.16-23.69-15.16h-12.78c-1.32,0-8.82,6.81-8.82,6.81l3.09,2.11s4.63-4.03,5.51-4.03h6.61s5.73,0,6.61,0,22.36,15.16,23.69,15.16h12.78c1.32,0,8.82-6.81,8.82-6.81l-3.09-2.11Z"/><path class="cls-1" d="M158.89,27.95s-4.63,4.03-5.51,4.03h-13.22c-.88,0-22.36-15.16-23.69-15.16h-12.78c-1.32,0-8.82,6.81-8.82,6.81l3.09,2.11s4.63-4.03,5.51-4.03h6.61s5.73,0,6.61,0,22.36,15.16,23.69,15.16h12.78c1.32,0,8.82-6.81,8.82-6.81l-3.09-2.11Z"/><path class="cls-1" d="M195.58,27.95s-4.63,4.03-5.51,4.03h-13.22c-.88,0-22.36-15.16-23.69-15.16h-12.78c-1.32,0-8.82,6.81-8.82,6.81l3.09,2.11s4.63-4.03,5.51-4.03h6.61s5.73,0,6.61,0,22.36,15.16,23.69,15.16h12.78c1.32,0,8.82-6.81,8.82-6.81l-3.09-2.11Z"/><path class="cls-1" d="M232.27,27.95s-4.63,4.03-5.51,4.03h-13.22c-.88,0-22.36-15.16-23.69-15.16h-12.78c-1.32,0-8.82,6.81-8.82,6.81l3.09,2.11s4.63-4.03,5.51-4.03h6.61s5.73,0,6.61,0,22.36,15.16,23.69,15.16h12.78c1.32,0,8.82-6.81,8.82-6.81l-3.09-2.11Z"/><path class="cls-1" d="M268.96,27.95s-4.63,4.03-5.51,4.03h-13.22c-.88,0-22.36-15.16-23.69-15.16h-12.78c-1.32,0-8.82,6.81-8.82,6.81l3.09,2.11s4.63-4.03,5.51-4.03h6.61s5.73,0,6.61,0,22.36,15.16,23.69,15.16h12.78c1.32,0,8.82-6.81,8.82-6.81l-3.09-2.11Z"/><path class="cls-1" d="M305.65,27.95s-4.63,4.03-5.51,4.03h-13.22c-.88,0-22.36-15.16-23.69-15.16h-12.78c-1.32,0-8.82,6.81-8.82,6.81l3.09,2.11s4.63-4.03,5.51-4.03h6.61s5.73,0,6.61,0,22.36,15.16,23.69,15.16h12.78c1.32,0,8.82-6.81,8.82-6.81l-3.09-2.11Z"/><path class="cls-1" d="M342.34,27.95s-4.63,4.03-5.51,4.03h-13.22c-.88,0-22.36-15.16-23.69-15.16h-12.78c-1.32,0-8.82,6.81-8.82,6.81l3.09,2.11s4.63-4.03,5.51-4.03h6.61s5.73,0,6.61,0,22.36,15.16,23.69,15.16h12.78c1.32,0,8.82-6.81,8.82-6.81l-3.09-2.11Z"/><path class="cls-1" d="M379.03,27.95s-4.63,4.03-5.51,4.03h-13.22c-.88,0-22.36-15.16-23.69-15.16h-12.78c-1.32,0-8.82,6.81-8.82,6.81l3.09,2.11s4.63-4.03,5.51-4.03h6.61s5.73,0,6.61,0,22.36,15.16,23.69,15.16h12.78c1.32,0,8.82-6.81,8.82-6.81l-3.09-2.11Z"/><path class="cls-1" d="M415.72,27.95s-4.63,4.03-5.51,4.03h-13.22c-.88,0-22.36-15.16-23.69-15.16h-12.78c-1.32,0-8.82,6.81-8.82,6.81l3.09,2.11s4.63-4.03,5.51-4.03h6.61s5.73,0,6.61,0,22.36,15.16,23.69,15.16h12.78c1.32,0,8.82-6.81,8.82-6.81l-3.09-2.11Z"/><path class="cls-1" d="M452.41,27.95s-4.63,4.03-5.51,4.03h-13.22c-.88,0-22.36-15.16-23.69-15.16h-12.78c-1.32,0-8.82,6.81-8.82,6.81l3.09,2.11s4.63-4.03,5.51-4.03h6.61s5.73,0,6.61,0,22.36,15.16,23.69,15.16h12.78c1.32,0,8.82-6.81,8.82-6.81l-3.09-2.11Z"/><path class="cls-1" d="M489.1,27.95s-4.63,4.03-5.51,4.03h-13.22c-.88,0-22.36-15.16-23.69-15.16h-12.78c-1.32,0-8.82,6.81-8.82,6.81l3.09,2.11s4.63-4.03,5.51-4.03h6.61s5.73,0,6.61,0,22.36,15.16,23.69,15.16h12.78c1.32,0,8.82-6.81,8.82-6.81l-3.09-2.11Z"/><path class="cls-1" d="M525.78,27.95s-4.63,4.03-5.51,4.03h-13.22c-.88,0-22.36-15.16-23.69-15.16h-12.78c-1.32,0-8.82,6.81-8.82,6.81l3.09,2.11s4.63-4.03,5.51-4.03h6.61s5.73,0,6.61,0,22.36,15.16,23.69,15.16h12.78c1.32,0,8.82-6.81,8.82-6.81l-3.09-2.11Z"/><path class="cls-1" d="M562.47,27.95s-4.63,4.03-5.51,4.03h-13.22c-.88,0-22.36-15.16-23.69-15.16h-12.78c-1.32,0-8.82,6.81-8.82,6.81l3.09,2.11s4.63-4.03,5.51-4.03h6.61s5.73,0,6.61,0,22.36,15.16,23.69,15.16h12.78c1.32,0,8.82-6.81,8.82-6.81l-3.09-2.11Z"/><path class="cls-1" d="M599.16,27.95s-4.63,4.03-5.51,4.03h-13.22c-.88,0-22.36-15.16-23.69-15.16h-12.78c-1.32,0-8.82,6.81-8.82,6.81l3.09,2.11s4.63-4.03,5.51-4.03h6.61s5.73,0,6.61,0,22.36,15.16,23.69,15.16h12.78c1.32,0,8.82-6.81,8.82-6.81l-3.09-2.11Z"/><path class="cls-1" d="M635.85,27.95s-4.63,4.03-5.51,4.03h-13.22c-.88,0-22.36-15.16-23.69-15.16h-12.78c-1.32,0-8.82,6.81-8.82,6.81l3.09,2.11s4.63-4.03,5.51-4.03h6.61s5.73,0,6.61,0,22.36,15.16,23.69,15.16h12.78c1.32,0,8.82-6.81,8.82-6.81l-3.09-2.11Z"/><path class="cls-1" d="M672.54,27.95s-4.63,4.03-5.51,4.03h-13.22c-.88,0-22.36-15.16-23.69-15.16h-12.78c-1.32,0-8.82,6.81-8.82,6.81l3.09,2.11s4.63-4.03,5.51-4.03h6.61s5.73,0,6.61,0,22.36,15.16,23.69,15.16h12.78c1.32,0,8.82-6.81,8.82-6.81l-3.09-2.11Z"/><path class="cls-1" d="M709.23,27.95s-4.63,4.03-5.51,4.03h-13.22c-.88,0-22.36-15.16-23.69-15.16h-12.78c-1.32,0-8.82,6.81-8.82,6.81l3.09,2.11s4.63-4.03,5.51-4.03h6.61s5.73,0,6.61,0,22.36,15.16,23.69,15.16h12.78c1.32,0,8.82-6.81,8.82-6.81l-3.09-2.11Z"/><path class="cls-1" d="M745.92,27.95s-4.63,4.03-5.51,4.03h-13.22c-.88,0-22.36-15.16-23.69-15.16h-12.78c-1.32,0-8.82,6.81-8.82,6.81l3.09,2.11s4.63-4.03,5.51-4.03h6.61s5.73,0,6.61,0,22.36,15.16,23.69,15.16h12.78c1.32,0,8.82-6.81,8.82-6.81l-3.09-2.11Z"/><path class="cls-1" d="M770.49,31.98h-6.61c-.88,0-22.36-15.16-23.69-15.16h-12.78c-1.32,0-8.82,6.81-8.82,6.81l3.09,2.11s4.63-4.03,5.51-4.03h6.61s5.73,0,6.61,0,22.36,15.16,23.69,15.16h6.82v-4.89h-.43Z"/><path class="cls-1" d="M770.49,16.83h-6.39c-1.32,0-8.82,6.81-8.82,6.81l3.09,2.11s4.63-4.03,5.51-4.03h6.61s.17,0,.43,0v-4.89h-.43Z"/><polygon class="cls-2" points="793.93 16.91 789.27 14.42 784.6 16.91 789.27 21.12 793.93 16.91"/><polygon class="cls-2" points="784.6 36.79 789.27 39.28 793.93 36.79 789.27 32.58 784.6 36.79"/><polygon class="cls-2" points="830.62 16.91 825.96 14.42 821.29 16.91 825.96 21.12 830.62 16.91"/><polygon class="cls-2" points="821.29 36.79 825.96 39.28 830.62 36.79 825.96 32.58 821.29 36.79"/><polygon class="cls-2" points="867.31 16.91 862.65 14.42 857.98 16.91 862.65 21.12 867.31 16.91"/><polygon class="cls-2" points="857.98 36.79 862.64 39.28 867.31 36.79 862.64 32.58 857.98 36.79"/><polygon class="cls-2" points="904 16.91 899.33 14.42 894.67 16.91 899.33 21.12 904 16.91"/><polygon class="cls-2" points="894.67 36.79 899.33 39.28 904 36.79 899.33 32.58 894.67 36.79"/><polygon class="cls-2" points="940.69 16.91 936.02 14.42 931.36 16.91 936.02 21.12 940.69 16.91"/><polygon class="cls-2" points="931.36 36.79 936.02 39.28 940.69 36.79 936.02 32.58 931.36 36.79"/><polygon class="cls-2" points="977.38 16.91 972.71 14.42 968.05 16.91 972.71 21.12 977.38 16.91"/><polygon class="cls-2" points="968.05 36.79 972.71 39.28 977.38 36.79 972.71 32.58 968.05 36.79"/><polygon class="cls-2" points="1014.06 16.91 1009.4 14.42 1004.74 16.91 1009.4 21.12 1014.06 16.91"/><polygon class="cls-2" points="1004.74 36.79 1009.4 39.28 1014.07 36.79 1009.4 32.58 1004.74 36.79"/><polygon class="cls-2" points="1050.75 16.91 1046.09 14.42 1041.43 16.91 1046.09 21.12 1050.75 16.91"/><polygon class="cls-2" points="1041.43 36.79 1046.09 39.28 1050.75 36.79 1046.09 32.58 1041.43 36.79"/><polygon class="cls-2" points="1087.44 16.91 1082.78 14.42 1078.12 16.91 1082.78 21.12 1087.44 16.91"/><polygon class="cls-2" points="1078.12 36.79 1082.78 39.28 1087.44 36.79 1082.78 32.58 1078.12 36.79"/><polygon class="cls-2" points="1124.13 16.91 1119.47 14.42 1114.81 16.91 1119.47 21.12 1124.13 16.91"/><polygon class="cls-2" points="1114.81 36.79 1119.47 39.28 1124.13 36.79 1119.47 32.58 1114.81 36.79"/><polygon class="cls-2" points="1160.82 16.91 1156.16 14.42 1151.5 16.91 1156.16 21.12 1160.82 16.91"/><polygon class="cls-2" points="1151.5 36.79 1156.16 39.28 1160.82 36.79 1156.16 32.58 1151.5 36.79"/><polygon class="cls-2" points="1197.51 16.91 1192.85 14.42 1188.19 16.91 1192.85 21.12 1197.51 16.91"/><polygon class="cls-2" points="1188.19 36.79 1192.85 39.28 1197.51 36.79 1192.85 32.58 1188.19 36.79"/><polygon class="cls-2" points="1234.2 16.91 1229.54 14.42 1224.88 16.91 1229.54 21.12 1234.2 16.91"/><polygon class="cls-2" points="1224.88 36.79 1229.54 39.28 1234.2 36.79 1229.54 32.58 1224.88 36.79"/><polygon class="cls-2" points="1270.89 16.91 1266.23 14.42 1261.57 16.91 1266.23 21.12 1270.89 16.91"/><polygon class="cls-2" points="1261.57 36.79 1266.23 39.28 1270.89 36.79 1266.23 32.58 1261.57 36.79"/><polygon class="cls-2" points="1307.58 16.91 1302.92 14.42 1298.26 16.91 1302.92 21.12 1307.58 16.91"/><polygon class="cls-2" points="1298.26 36.79 1302.92 39.28 1307.58 36.79 1302.92 32.58 1298.26 36.79"/><polygon class="cls-2" points="1344.27 16.91 1339.61 14.42 1334.95 16.91 1339.61 21.12 1344.27 16.91"/><polygon class="cls-2" points="1334.95 36.79 1339.61 39.28 1344.27 36.79 1339.61 32.58 1334.95 36.79"/><polygon class="cls-2" points="1380.96 16.91 1376.3 14.42 1371.64 16.91 1376.3 21.12 1380.96 16.91"/><polygon class="cls-2" points="1371.64 36.79 1376.3 39.28 1380.96 36.79 1376.3 32.58 1371.64 36.79"/><polygon class="cls-2" points="1417.65 16.91 1412.99 14.42 1408.33 16.91 1412.99 21.12 1417.65 16.91"/><polygon class="cls-2" points="1408.33 36.79 1412.99 39.28 1417.65 36.79 1412.99 32.58 1408.33 36.79"/><polygon class="cls-2" points="1454.34 16.91 1449.68 14.42 1445.01 16.91 1449.68 21.12 1454.34 16.91"/><polygon class="cls-2" points="1445.02 36.79 1449.68 39.28 1454.34 36.79 1449.68 32.58 1445.02 36.79"/><polygon class="cls-2" points="1491.03 16.91 1486.37 14.42 1481.7 16.91 1486.37 21.12 1491.03 16.91"/><polygon class="cls-2" points="1481.7 36.79 1486.37 39.28 1491.03 36.79 1486.37 32.58 1481.7 36.79"/><polygon class="cls-2" points="1527.72 16.91 1523.06 14.42 1518.39 16.91 1523.06 21.12 1527.72 16.91"/><polygon class="cls-2" points="1518.39 36.79 1523.06 39.28 1527.72 36.79 1523.06 32.58 1518.39 36.79"/><path class="cls-1" d="M783.04,27.95s-4.63,4.03-5.51,4.03h-6.61v4.89h6.39c1.32,0,8.82-6.81,8.82-6.81l-3.09-2.11Z"/><path class="cls-1" d="M819.73,27.95s-4.63,4.03-5.51,4.03h-13.22c-.88,0-22.36-15.16-23.69-15.16h-6.39v4.89h6.61c.88,0,22.36,15.16,23.69,15.16h12.78c1.32,0,8.82-6.81,8.82-6.81l-3.09-2.11Z"/><path class="cls-1" d="M856.42,27.95s-4.63,4.03-5.51,4.03h-13.22c-.88,0-22.36-15.16-23.69-15.16h-12.78c-1.32,0-8.82,6.81-8.82,6.81l3.09,2.11s4.63-4.03,5.51-4.03h6.61s5.73,0,6.61,0,22.36,15.16,23.69,15.16h12.78c1.32,0,8.82-6.81,8.82-6.81l-3.09-2.11Z"/><path class="cls-1" d="M893.11,27.95s-4.63,4.03-5.51,4.03h-13.22c-.88,0-22.36-15.16-23.69-15.16h-12.78c-1.32,0-8.82,6.81-8.82,6.81l3.09,2.11s4.63-4.03,5.51-4.03h6.61s5.73,0,6.61,0,22.36,15.16,23.69,15.16h12.78c1.32,0,8.82-6.81,8.82-6.81l-3.09-2.11Z"/><path class="cls-1" d="M929.8,27.95s-4.63,4.03-5.51,4.03h-13.22c-.88,0-22.36-15.16-23.69-15.16h-12.78c-1.32,0-8.82,6.81-8.82,6.81l3.09,2.11s4.63-4.03,5.51-4.03h6.61s5.73,0,6.61,0,22.36,15.16,23.69,15.16h12.78c1.32,0,8.82-6.81,8.82-6.81l-3.09-2.11Z"/><path class="cls-1" d="M966.49,27.95s-4.63,4.03-5.51,4.03h-13.22c-.88,0-22.36-15.16-23.69-15.16h-12.78c-1.32,0-8.82,6.81-8.82,6.81l3.09,2.11s4.63-4.03,5.51-4.03h6.61s5.73,0,6.61,0,22.36,15.16,23.69,15.16h12.78c1.32,0,8.82-6.81,8.82-6.81l-3.09-2.11Z"/><path class="cls-1" d="M1003.18,27.95s-4.63,4.03-5.51,4.03h-13.22c-.88,0-22.36-15.16-23.69-15.16h-12.78c-1.32,0-8.82,6.81-8.82,6.81l3.09,2.11s4.63-4.03,5.51-4.03h6.61s5.73,0,6.61,0,22.36,15.16,23.69,15.16h12.78c1.32,0,8.82-6.81,8.82-6.81l-3.09-2.11Z"/><path class="cls-1" d="M1039.87,27.95s-4.63,4.03-5.51,4.03h-13.22c-.88,0-22.36-15.16-23.69-15.16h-12.78c-1.32,0-8.82,6.81-8.82,6.81l3.09,2.11s4.63-4.03,5.51-4.03h6.61s5.73,0,6.61,0,22.36,15.16,23.69,15.16h12.78c1.32,0,8.82-6.81,8.82-6.81l-3.09-2.11Z"/><path class="cls-1" d="M1076.56,27.95s-4.63,4.03-5.51,4.03h-13.22c-.88,0-22.36-15.16-23.69-15.16h-12.78c-1.32,0-8.82,6.81-8.82,6.81l3.09,2.11s4.63-4.03,5.51-4.03h6.61s5.73,0,6.61,0,22.36,15.16,23.69,15.16h12.78c1.32,0,8.82-6.81,8.82-6.81l-3.09-2.11Z"/><path class="cls-1" d="M1113.25,27.95s-4.63,4.03-5.51,4.03h-13.22c-.88,0-22.36-15.16-23.69-15.16h-12.78c-1.32,0-8.82,6.81-8.82,6.81l3.09,2.11s4.63-4.03,5.51-4.03h6.61s5.73,0,6.61,0,22.36,15.16,23.69,15.16h12.78c1.32,0,8.82-6.81,8.82-6.81l-3.09-2.11Z"/><path class="cls-1" d="M1149.94,27.95s-4.63,4.03-5.51,4.03h-13.22c-.88,0-22.36-15.16-23.69-15.16h-12.78c-1.32,0-8.82,6.81-8.82,6.81l3.09,2.11s4.63-4.03,5.51-4.03h6.61s5.73,0,6.61,0,22.36,15.16,23.69,15.16h12.78c1.32,0,8.82-6.81,8.82-6.81l-3.09-2.11Z"/><path class="cls-1" d="M1186.63,27.95s-4.63,4.03-5.51,4.03h-13.22c-.88,0-22.36-15.16-23.69-15.16h-12.78c-1.32,0-8.82,6.81-8.82,6.81l3.09,2.11s4.63-4.03,5.51-4.03h6.61s5.73,0,6.61,0,22.36,15.16,23.69,15.16h12.78c1.32,0,8.82-6.81,8.82-6.81l-3.09-2.11Z"/><path class="cls-1" d="M1223.32,27.95s-4.63,4.03-5.51,4.03h-13.22c-.88,0-22.36-15.16-23.69-15.16h-12.78c-1.32,0-8.82,6.81-8.82,6.81l3.09,2.11s4.63-4.03,5.51-4.03h6.61s5.73,0,6.61,0,22.36,15.16,23.69,15.16h12.78c1.32,0,8.82-6.81,8.82-6.81l-3.09-2.11Z"/><path class="cls-1" d="M1260.01,27.95s-4.63,4.03-5.51,4.03h-13.22c-.88,0-22.36-15.16-23.69-15.16h-12.78c-1.32,0-8.82,6.81-8.82,6.81l3.09,2.11s4.63-4.03,5.51-4.03h6.61s5.73,0,6.61,0,22.36,15.16,23.69,15.16h12.78c1.32,0,8.82-6.81,8.82-6.81l-3.09-2.11Z"/><path class="cls-1" d="M1296.7,27.95s-4.63,4.03-5.51,4.03h-13.22c-.88,0-22.36-15.16-23.69-15.16h-12.78c-1.32,0-8.82,6.81-8.82,6.81l3.09,2.11s4.63-4.03,5.51-4.03h6.61s5.73,0,6.61,0,22.36,15.16,23.69,15.16h12.78c1.32,0,8.82-6.81,8.82-6.81l-3.09-2.11Z"/><path class="cls-1" d="M1333.39,27.95s-4.63,4.03-5.51,4.03h-13.22c-.88,0-22.36-15.16-23.69-15.16h-12.78c-1.32,0-8.82,6.81-8.82,6.81l3.09,2.11s4.63-4.03,5.51-4.03h6.61s5.73,0,6.61,0,22.36,15.16,23.69,15.16h12.78c1.32,0,8.82-6.81,8.82-6.81l-3.09-2.11Z"/><path class="cls-1" d="M1370.08,27.95s-4.63,4.03-5.51,4.03h-13.22c-.88,0-22.36-15.16-23.69-15.16h-12.78c-1.32,0-8.82,6.81-8.82,6.81l3.09,2.11s4.63-4.03,5.51-4.03h6.61s5.73,0,6.61,0,22.36,15.16,23.69,15.16h12.78c1.32,0,8.82-6.81,8.82-6.81l-3.09-2.11Z"/><path class="cls-1" d="M1406.76,27.95s-4.63,4.03-5.51,4.03h-13.22c-.88,0-22.36-15.16-23.69-15.16h-12.78c-1.32,0-8.82,6.81-8.82,6.81l3.09,2.11s4.63-4.03,5.51-4.03h6.61s5.73,0,6.61,0,22.36,15.16,23.69,15.16h12.78c1.32,0,8.82-6.81,8.82-6.81l-3.09-2.11Z"/><path class="cls-1" d="M1443.45,27.95s-4.63,4.03-5.51,4.03h-13.22c-.88,0-22.36-15.16-23.69-15.16h-12.78c-1.32,0-8.82,6.81-8.82,6.81l3.09,2.11s4.63-4.03,5.51-4.03h6.61s5.73,0,6.61,0,22.36,15.16,23.69,15.16h12.78c1.32,0,8.82-6.81,8.82-6.81l-3.09-2.11Z"/><path class="cls-1" d="M1480.14,27.95s-4.63,4.03-5.51,4.03h-13.22c-.88,0-22.36-15.16-23.69-15.16h-12.78c-1.32,0-8.82,6.81-8.82,6.81l3.09,2.11s4.63-4.03,5.51-4.03h6.61s5.73,0,6.61,0,22.36,15.16,23.69,15.16h12.78c1.32,0,8.82-6.81,8.82-6.81l-3.09-2.11Z"/><path class="cls-1" d="M1516.83,27.95s-4.63,4.03-5.51,4.03h-13.22c-.88,0-22.36-15.16-23.69-15.16h-12.78c-1.32,0-8.82,6.81-8.82,6.81l3.09,2.11s4.63-4.03,5.51-4.03h6.61s5.73,0,6.61,0,22.36,15.16,23.69,15.16h12.78c1.32,0,8.82-6.81,8.82-6.81l-3.09-2.11Z"/><path class="cls-1" d="M1541.4,31.98h-6.61c-.88,0-22.36-15.16-23.69-15.16h-12.78c-1.32,0-8.82,6.81-8.82,6.81l3.09,2.11s4.63-4.03,5.51-4.03h6.61s5.73,0,6.61,0,22.36,15.16,23.69,15.16h6.82v-4.89h-.43Z"/><path class="cls-1" d="M1541.4,16.83h-6.39c-1.32,0-8.82,6.81-8.82,6.81l3.09,2.11s4.63-4.03,5.51-4.03h6.61s.17,0,.43,0v-4.89h-.43Z"/><polygon class="cls-2" points="1565.18 16.91 1560.52 14.42 1555.86 16.91 1560.52 21.12 1565.18 16.91"/><polygon class="cls-2" points="1555.86 36.79 1560.52 39.28 1565.18 36.79 1560.52 32.58 1555.86 36.79"/><polygon class="cls-2" points="1601.87 16.91 1597.21 14.42 1592.55 16.91 1597.21 21.12 1601.87 16.91"/><polygon class="cls-2" points="1592.55 36.79 1597.21 39.28 1601.87 36.79 1597.21 32.58 1592.55 36.79"/><polygon class="cls-2" points="1638.56 16.91 1633.9 14.42 1629.24 16.91 1633.9 21.12 1638.56 16.91"/><polygon class="cls-2" points="1629.24 36.79 1633.9 39.28 1638.56 36.79 1633.9 32.58 1629.24 36.79"/><polygon class="cls-2" points="1675.25 16.91 1670.59 14.42 1665.93 16.91 1670.59 21.12 1675.25 16.91"/><polygon class="cls-2" points="1665.93 36.79 1670.59 39.28 1675.25 36.79 1670.59 32.58 1665.93 36.79"/><polygon class="cls-2" points="1711.94 16.91 1707.28 14.42 1702.62 16.91 1707.28 21.12 1711.94 16.91"/><polygon class="cls-2" points="1702.62 36.79 1707.28 39.28 1711.94 36.79 1707.28 32.58 1702.62 36.79"/><polygon class="cls-2" points="1748.63 16.91 1743.97 14.42 1739.3 16.91 1743.97 21.12 1748.63 16.91"/><polygon class="cls-2" points="1739.3 36.79 1743.97 39.28 1748.63 36.79 1743.97 32.58 1739.3 36.79"/><polygon class="cls-2" points="1785.32 16.91 1780.66 14.42 1775.99 16.91 1780.66 21.12 1785.32 16.91"/><polygon class="cls-2" points="1775.99 36.79 1780.66 39.28 1785.32 36.79 1780.66 32.58 1775.99 36.79"/><polygon class="cls-2" points="1822.01 16.91 1817.35 14.42 1812.68 16.91 1817.35 21.12 1822.01 16.91"/><polygon class="cls-2" points="1812.68 36.79 1817.35 39.28 1822.01 36.79 1817.35 32.58 1812.68 36.79"/><polygon class="cls-2" points="1858.7 16.91 1854.04 14.42 1849.37 16.91 1854.04 21.12 1858.7 16.91"/><polygon class="cls-2" points="1849.37 36.79 1854.04 39.28 1858.7 36.79 1854.04 32.58 1849.37 36.79"/><polygon class="cls-2" points="1895.39 16.91 1890.72 14.42 1886.06 16.91 1890.72 21.12 1895.39 16.91"/><polygon class="cls-2" points="1886.06 36.79 1890.72 39.28 1895.39 36.79 1890.72 32.58 1886.06 36.79"/><polygon class="cls-2" points="1932.08 16.91 1927.41 14.42 1922.75 16.91 1927.41 21.12 1932.08 16.91"/><polygon class="cls-2" points="1922.75 36.79 1927.41 39.28 1932.08 36.79 1927.41 32.58 1922.75 36.79"/><polygon class="cls-2" points="1968.77 16.91 1964.1 14.42 1959.44 16.91 1964.1 21.12 1968.77 16.91"/><polygon class="cls-2" points="1959.44 36.79 1964.1 39.28 1968.77 36.79 1964.1 32.58 1959.44 36.79"/><polygon class="cls-2" points="2005.45 16.91 2000.79 14.42 1996.13 16.91 2000.79 21.12 2005.45 16.91"/><polygon class="cls-2" points="1996.13 36.79 2000.79 39.28 2005.46 36.79 2000.79 32.58 1996.13 36.79"/><polygon class="cls-2" points="2042.14 16.91 2037.48 14.42 2032.82 16.91 2037.48 21.12 2042.14 16.91"/><polygon class="cls-2" points="2032.82 36.79 2037.48 39.28 2042.14 36.79 2037.48 32.58 2032.82 36.79"/><polygon class="cls-2" points="2078.83 16.91 2074.17 14.42 2069.51 16.91 2074.17 21.12 2078.83 16.91"/><polygon class="cls-2" points="2069.51 36.79 2074.17 39.28 2078.83 36.79 2074.17 32.58 2069.51 36.79"/><polygon class="cls-2" points="2115.52 16.91 2110.86 14.42 2106.2 16.91 2110.86 21.12 2115.52 16.91"/><polygon class="cls-2" points="2106.2 36.79 2110.86 39.28 2115.52 36.79 2110.86 32.58 2106.2 36.79"/><polygon class="cls-2" points="2152.21 16.91 2147.55 14.42 2142.89 16.91 2147.55 21.12 2152.21 16.91"/><polygon class="cls-2" points="2142.89 36.79 2147.55 39.28 2152.21 36.79 2147.55 32.58 2142.89 36.79"/><polygon class="cls-2" points="2188.9 16.91 2184.24 14.42 2179.58 16.91 2184.24 21.12 2188.9 16.91"/><polygon class="cls-2" points="2179.58 36.79 2184.24 39.28 2188.9 36.79 2184.24 32.58 2179.58 36.79"/><polygon class="cls-2" points="2225.59 16.91 2220.93 14.42 2216.27 16.91 2220.93 21.12 2225.59 16.91"/><polygon class="cls-2" points="2216.27 36.79 2220.93 39.28 2225.59 36.79 2220.93 32.58 2216.27 36.79"/><polygon class="cls-2" points="2262.28 16.91 2257.62 14.42 2252.96 16.91 2257.62 21.12 2262.28 16.91"/><polygon class="cls-2" points="2252.96 36.79 2257.62 39.28 2262.28 36.79 2257.62 32.58 2252.96 36.79"/><polygon class="cls-2" points="2298.97 16.91 2294.31 14.42 2289.65 16.91 2294.31 21.12 2298.97 16.91"/><polygon class="cls-2" points="2289.65 36.79 2294.31 39.28 2298.97 36.79 2294.31 32.58 2289.65 36.79"/><path class="cls-1" d="M1554.3,27.95s-4.63,4.03-5.51,4.03h-6.61v4.89h6.39c1.32,0,8.82-6.81,8.82-6.81l-3.09-2.11Z"/><path class="cls-1" d="M1590.99,27.95s-4.63,4.03-5.51,4.03h-13.22c-.88,0-22.36-15.16-23.69-15.16h-6.39v4.89h6.61c.88,0,22.36,15.16,23.69,15.16h12.78c1.32,0,8.82-6.81,8.82-6.81l-3.09-2.11Z"/><path class="cls-1" d="M1627.68,27.95s-4.63,4.03-5.51,4.03h-13.22c-.88,0-22.36-15.16-23.69-15.16h-12.78c-1.32,0-8.82,6.81-8.82,6.81l3.09,2.11s4.63-4.03,5.51-4.03h6.61s5.73,0,6.61,0,22.36,15.16,23.69,15.16h12.78c1.32,0,8.82-6.81,8.82-6.81l-3.09-2.11Z"/><path class="cls-1" d="M1664.37,27.95s-4.63,4.03-5.51,4.03h-13.22c-.88,0-22.36-15.16-23.69-15.16h-12.78c-1.32,0-8.82,6.81-8.82,6.81l3.09,2.11s4.63-4.03,5.51-4.03h6.61s5.73,0,6.61,0,22.36,15.16,23.69,15.16h12.78c1.32,0,8.82-6.81,8.82-6.81l-3.09-2.11Z"/><path class="cls-1" d="M1701.05,27.95s-4.63,4.03-5.51,4.03h-13.22c-.88,0-22.36-15.16-23.69-15.16h-12.78c-1.32,0-8.82,6.81-8.82,6.81l3.09,2.11s4.63-4.03,5.51-4.03h6.61s5.73,0,6.61,0,22.36,15.16,23.69,15.16h12.78c1.32,0,8.82-6.81,8.82-6.81l-3.09-2.11Z"/><path class="cls-1" d="M1737.74,27.95s-4.63,4.03-5.51,4.03h-13.22c-.88,0-22.36-15.16-23.69-15.16h-12.78c-1.32,0-8.82,6.81-8.82,6.81l3.09,2.11s4.63-4.03,5.51-4.03h6.61s5.73,0,6.61,0,22.36,15.16,23.69,15.16h12.78c1.32,0,8.82-6.81,8.82-6.81l-3.09-2.11Z"/><path class="cls-1" d="M1774.43,27.95s-4.63,4.03-5.51,4.03h-13.22c-.88,0-22.36-15.16-23.69-15.16h-12.78c-1.32,0-8.82,6.81-8.82,6.81l3.09,2.11s4.63-4.03,5.51-4.03h6.61s5.73,0,6.61,0,22.36,15.16,23.69,15.16h12.78c1.32,0,8.82-6.81,8.82-6.81l-3.09-2.11Z"/><path class="cls-1" d="M1811.12,27.95s-4.63,4.03-5.51,4.03h-13.22c-.88,0-22.36-15.16-23.69-15.16h-12.78c-1.32,0-8.82,6.81-8.82,6.81l3.09,2.11s4.63-4.03,5.51-4.03h6.61s5.73,0,6.61,0,22.36,15.16,23.69,15.16h12.78c1.32,0,8.82-6.81,8.82-6.81l-3.09-2.11Z"/><path class="cls-1" d="M1847.81,27.95s-4.63,4.03-5.51,4.03h-13.22c-.88,0-22.36-15.16-23.69-15.16h-12.78c-1.32,0-8.82,6.81-8.82,6.81l3.09,2.11s4.63-4.03,5.51-4.03h6.61s5.73,0,6.61,0,22.36,15.16,23.69,15.16h12.78c1.32,0,8.82-6.81,8.82-6.81l-3.09-2.11Z"/><path class="cls-1" d="M1884.5,27.95s-4.63,4.03-5.51,4.03h-13.22c-.88,0-22.36-15.16-23.69-15.16h-12.78c-1.32,0-8.82,6.81-8.82,6.81l3.09,2.11s4.63-4.03,5.51-4.03h6.61s5.73,0,6.61,0,22.36,15.16,23.69,15.16h12.78c1.32,0,8.82-6.81,8.82-6.81l-3.09-2.11Z"/><path class="cls-1" d="M1921.19,27.95s-4.63,4.03-5.51,4.03h-13.22c-.88,0-22.36-15.16-23.69-15.16h-12.78c-1.32,0-8.82,6.81-8.82,6.81l3.09,2.11s4.63-4.03,5.51-4.03h6.61s5.73,0,6.61,0,22.36,15.16,23.69,15.16h12.78c1.32,0,8.82-6.81,8.82-6.81l-3.09-2.11Z"/><path class="cls-1" d="M1957.88,27.95s-4.63,4.03-5.51,4.03h-13.22c-.88,0-22.36-15.16-23.69-15.16h-12.78c-1.32,0-8.82,6.81-8.82,6.81l3.09,2.11s4.63-4.03,5.51-4.03h6.61s5.73,0,6.61,0,22.36,15.16,23.69,15.16h12.78c1.32,0,8.82-6.81,8.82-6.81l-3.09-2.11Z"/><path class="cls-1" d="M1994.57,27.95s-4.63,4.03-5.51,4.03h-13.22c-.88,0-22.36-15.16-23.69-15.16h-12.78c-1.32,0-8.82,6.81-8.82,6.81l3.09,2.11s4.63-4.03,5.51-4.03h6.61s5.73,0,6.61,0,22.36,15.16,23.69,15.16h12.78c1.32,0,8.82-6.81,8.82-6.81l-3.09-2.11Z"/><path class="cls-1" d="M2031.26,27.95s-4.63,4.03-5.51,4.03h-13.22c-.88,0-22.36-15.16-23.69-15.16h-12.78c-1.32,0-8.82,6.81-8.82,6.81l3.09,2.11s4.63-4.03,5.51-4.03h6.61s5.73,0,6.61,0,22.36,15.16,23.69,15.16h12.78c1.32,0,8.82-6.81,8.82-6.81l-3.09-2.11Z"/><path class="cls-1" d="M2067.95,27.95s-4.63,4.03-5.51,4.03h-13.22c-.88,0-22.36-15.16-23.69-15.16h-12.78c-1.32,0-8.82,6.81-8.82,6.81l3.09,2.11s4.63-4.03,5.51-4.03h6.61s5.73,0,6.61,0,22.36,15.16,23.69,15.16h12.78c1.32,0,8.82-6.81,8.82-6.81l-3.09-2.11Z"/><path class="cls-1" d="M2104.64,27.95s-4.63,4.03-5.51,4.03h-13.22c-.88,0-22.36-15.16-23.69-15.16h-12.78c-1.32,0-8.82,6.81-8.82,6.81l3.09,2.11s4.63-4.03,5.51-4.03h6.61s5.73,0,6.61,0,22.36,15.16,23.69,15.16h12.78c1.32,0,8.82-6.81,8.82-6.81l-3.09-2.11Z"/><path class="cls-1" d="M2141.33,27.95s-4.63,4.03-5.51,4.03h-13.22c-.88,0-22.36-15.16-23.69-15.16h-12.78c-1.32,0-8.82,6.81-8.82,6.81l3.09,2.11s4.63-4.03,5.51-4.03h6.61s5.73,0,6.61,0,22.36,15.16,23.69,15.16h12.78c1.32,0,8.82-6.81,8.82-6.81l-3.09-2.11Z"/><path class="cls-1" d="M2178.02,27.95s-4.63,4.03-5.51,4.03h-13.22c-.88,0-22.36-15.16-23.69-15.16h-12.78c-1.32,0-8.82,6.81-8.82,6.81l3.09,2.11s4.63-4.03,5.51-4.03h6.61s5.73,0,6.61,0,22.36,15.16,23.69,15.16h12.78c1.32,0,8.82-6.81,8.82-6.81l-3.09-2.11Z"/><path class="cls-1" d="M2214.71,27.95s-4.63,4.03-5.51,4.03h-13.22c-.88,0-22.36-15.16-23.69-15.16h-12.78c-1.32,0-8.82,6.81-8.82,6.81l3.09,2.11s4.63-4.03,5.51-4.03h6.61s5.73,0,6.61,0,22.36,15.16,23.69,15.16h12.78c1.32,0,8.82-6.81,8.82-6.81l-3.09-2.11Z"/><path class="cls-1" d="M2251.4,27.95s-4.63,4.03-5.51,4.03h-13.22c-.88,0-22.36-15.16-23.69-15.16h-12.78c-1.32,0-8.82,6.81-8.82,6.81l3.09,2.11s4.63-4.03,5.51-4.03h6.61s5.73,0,6.61,0,22.36,15.16,23.69,15.16h12.78c1.32,0,8.82-6.81,8.82-6.81l-3.09-2.11Z"/><path class="cls-1" d="M2288.09,27.95s-4.63,4.03-5.51,4.03h-13.22c-.88,0-22.36-15.16-23.69-15.16h-12.78c-1.32,0-8.82,6.81-8.82,6.81l3.09,2.11s4.63-4.03,5.51-4.03h6.61s5.73,0,6.61,0,22.36,15.16,23.69,15.16h12.78c1.32,0,8.82-6.81,8.82-6.81l-3.09-2.11Z"/><path class="cls-1" d="M2312.65,31.98h-6.61c-.88,0-22.36-15.16-23.69-15.16h-12.78c-1.32,0-8.82,6.81-8.82,6.81l3.09,2.11s4.63-4.03,5.51-4.03h6.61s5.73,0,6.61,0,22.36,15.16,23.69,15.16h6.82v-4.89h-.43Z"/><path class="cls-1" d="M2312.65,16.83h-6.39c-1.32,0-8.82,6.81-8.82,6.81l3.09,2.11s4.63-4.03,5.51-4.03h6.61s.17,0,.43,0v-4.89h-.43Z"/></svg>