<?xml version="1.0" encoding="UTF-8"?><svg id="Layer_2" xmlns="http://www.w3.org/2000/svg" viewBox="0 0 95.67 93.54"><defs><style>.cls-1{fill:#4c1752;}.cls-1,.cls-2,.cls-3,.cls-4{stroke-width:0px;}.cls-2{fill:#193963;}.cls-3{fill:#13623c;}.cls-4{fill:#fcf5e6;}</style></defs><rect class="cls-4" x="4.83" width="86.02" height="93.54"/><polygon class="cls-2" points="49.14 18.26 38.45 23.97 49.14 33.63 59.83 23.97 49.14 18.26"/><polygon class="cls-2" points="38.45 69.57 49.14 75.29 59.83 69.57 49.14 59.92 38.45 69.57"/><path class="cls-1" d="M22.15,69.45c3.01,0,20.03-15.48,20.03-15.48l-7.01-4.8s-10.52,9.16-12.52,9.16H4.83v11.12h17.33Z"/><path class="cls-1" d="M75.67,58.34c-1.99,0-50.6-34.44-53.59-34.44H4.83v11.12h2.79s12.97,0,14.96,0,50.6,34.44,53.59,34.44h14.67v-11.12h-15.17Z"/><path class="cls-1" d="M90.63,23.9h-14.37c-2.97,0-19.82,15.48-19.82,15.48l6.94,4.8s10.41-9.15,12.39-9.15h14.87s.08,0,.21,0v-11.12h-.21Z"/><rect class="cls-3" x="4.83" width="86.02" height="11.91"/><rect class="cls-3" x="4.83" y="81.64" width="86.02" height="11.91"/></svg>