<?xml version="1.0" encoding="UTF-8"?><svg id="Layer_1" xmlns="http://www.w3.org/2000/svg" viewBox="0 0 770.91 53.7"><defs><style>.cls-1{fill:#4c1752;}.cls-1,.cls-2,.cls-3,.cls-4{stroke-width:0px;}.cls-2{fill:#193963;}.cls-3{fill:#13623c;}.cls-4{fill:#fcf5e6;}</style></defs><rect class="cls-4" x="0" width="770.91" height="53.7"/><rect class="cls-3" x="0" width="770.91" height="12.12"/><rect class="cls-3" x="0" y="41.58" width="770.91" height="12.12"/><polygon class="cls-2" points="23.01 16.91 18.34 14.42 13.68 16.91 18.34 21.12 23.01 16.91"/><polygon class="cls-2" points="13.68 36.79 18.34 39.28 23.01 36.79 18.34 32.58 13.68 36.79"/><polygon class="cls-2" points="59.7 16.91 55.03 14.42 50.37 16.91 55.03 21.12 59.7 16.91"/><polygon class="cls-2" points="50.37 36.79 55.03 39.28 59.7 36.79 55.03 32.58 50.37 36.79"/><polygon class="cls-2" points="96.39 16.91 91.72 14.42 87.06 16.91 91.72 21.12 96.39 16.91"/><polygon class="cls-2" points="87.06 36.79 91.72 39.28 96.39 36.79 91.72 32.58 87.06 36.79"/><polygon class="cls-2" points="133.08 16.91 128.41 14.42 123.75 16.91 128.41 21.12 133.08 16.91"/><polygon class="cls-2" points="123.75 36.79 128.41 39.28 133.08 36.79 128.41 32.58 123.75 36.79"/><polygon class="cls-2" points="169.76 16.91 165.1 14.42 160.44 16.91 165.1 21.12 169.76 16.91"/><polygon class="cls-2" points="160.44 36.79 165.1 39.28 169.76 36.79 165.1 32.58 160.44 36.79"/><polygon class="cls-2" points="206.45 16.91 201.79 14.42 197.13 16.91 201.79 21.12 206.45 16.91"/><polygon class="cls-2" points="197.13 36.79 201.79 39.28 206.45 36.79 201.79 32.58 197.13 36.79"/><polygon class="cls-2" points="243.14 16.91 238.48 14.42 233.82 16.91 238.48 21.12 243.14 16.91"/><polygon class="cls-2" points="233.82 36.79 238.48 39.28 243.14 36.79 238.48 32.58 233.82 36.79"/><polygon class="cls-2" points="279.83 16.91 275.17 14.42 270.51 16.91 275.17 21.12 279.83 16.91"/><polygon class="cls-2" points="270.51 36.79 275.17 39.28 279.83 36.79 275.17 32.58 270.51 36.79"/><polygon class="cls-2" points="316.52 16.91 311.86 14.42 307.2 16.91 311.86 21.12 316.52 16.91"/><polygon class="cls-2" points="307.2 36.79 311.86 39.28 316.52 36.79 311.86 32.58 307.2 36.79"/><polygon class="cls-2" points="353.21 16.91 348.55 14.42 343.89 16.91 348.55 21.12 353.21 16.91"/><polygon class="cls-2" points="343.89 36.79 348.55 39.28 353.21 36.79 348.55 32.58 343.89 36.79"/><polygon class="cls-2" points="389.9 16.91 385.24 14.42 380.58 16.91 385.24 21.12 389.9 16.91"/><polygon class="cls-2" points="380.58 36.79 385.24 39.28 389.9 36.79 385.24 32.58 380.58 36.79"/><polygon class="cls-2" points="426.59 16.91 421.93 14.42 417.27 16.91 421.93 21.12 426.59 16.91"/><polygon class="cls-2" points="417.27 36.79 421.93 39.28 426.59 36.79 421.93 32.58 417.27 36.79"/><polygon class="cls-2" points="463.28 16.91 458.62 14.42 453.96 16.91 458.62 21.12 463.28 16.91"/><polygon class="cls-2" points="453.96 36.79 458.62 39.28 463.28 36.79 458.62 32.58 453.96 36.79"/><polygon class="cls-2" points="499.97 16.91 495.31 14.42 490.65 16.91 495.31 21.12 499.97 16.91"/><polygon class="cls-2" points="490.65 36.79 495.31 39.28 499.97 36.79 495.31 32.58 490.65 36.79"/><polygon class="cls-2" points="536.66 16.91 532 14.42 527.34 16.91 532 21.12 536.66 16.91"/><polygon class="cls-2" points="527.34 36.79 532 39.28 536.66 36.79 532 32.58 527.34 36.79"/><polygon class="cls-2" points="573.35 16.91 568.69 14.42 564.03 16.91 568.69 21.12 573.35 16.91"/><polygon class="cls-2" points="564.03 36.79 568.69 39.28 573.35 36.79 568.69 32.58 564.03 36.79"/><polygon class="cls-2" points="610.04 16.91 605.38 14.42 600.71 16.91 605.38 21.12 610.04 16.91"/><polygon class="cls-2" points="600.71 36.79 605.38 39.28 610.04 36.79 605.38 32.58 600.71 36.79"/><polygon class="cls-2" points="646.73 16.91 642.07 14.42 637.4 16.91 642.07 21.12 646.73 16.91"/><polygon class="cls-2" points="637.4 36.79 642.07 39.28 646.73 36.79 642.07 32.58 637.4 36.79"/><polygon class="cls-2" points="683.42 16.91 678.76 14.42 674.09 16.91 678.76 21.12 683.42 16.91"/><polygon class="cls-2" points="674.09 36.79 678.76 39.28 683.42 36.79 678.76 32.58 674.09 36.79"/><polygon class="cls-2" points="720.11 16.91 715.45 14.42 710.78 16.91 715.45 21.12 720.11 16.91"/><polygon class="cls-2" points="710.78 36.79 715.45 39.28 720.11 36.79 715.45 32.58 710.78 36.79"/><polygon class="cls-2" points="756.8 16.91 752.13 14.42 747.47 16.91 752.13 21.12 756.8 16.91"/><polygon class="cls-2" points="747.47 36.79 752.13 39.28 756.8 36.79 752.13 32.58 747.47 36.79"/><path class="cls-1" d="M12.12,27.95s-4.63,4.03-5.51,4.03H0v4.89h6.39c1.32,0,8.82-6.81,8.82-6.81l-3.09-2.11Z"/><path class="cls-1" d="M48.81,27.95s-4.63,4.03-5.51,4.03h-13.22c-.88,0-22.36-15.16-23.69-15.16H0v4.89h6.61c.88,0,22.36,15.16,23.69,15.16h12.78c1.32,0,8.82-6.81,8.82-6.81l-3.09-2.11Z"/><path class="cls-1" d="M85.5,27.95s-4.63,4.03-5.51,4.03h-13.22c-.88,0-22.36-15.16-23.69-15.16h-12.78c-1.32,0-8.82,6.81-8.82,6.81l3.09,2.11s4.63-4.03,5.51-4.03h6.61s5.73,0,6.61,0,22.36,15.16,23.69,15.16h12.78c1.32,0,8.82-6.81,8.82-6.81l-3.09-2.11Z"/><path class="cls-1" d="M122.19,27.95s-4.63,4.03-5.51,4.03h-13.22c-.88,0-22.36-15.16-23.69-15.16h-12.78c-1.32,0-8.82,6.81-8.82,6.81l3.09,2.11s4.63-4.03,5.51-4.03h6.61s5.73,0,6.61,0,22.36,15.16,23.69,15.16h12.78c1.32,0,8.82-6.81,8.82-6.81l-3.09-2.11Z"/><path class="cls-1" d="M158.88,27.95s-4.63,4.03-5.51,4.03h-13.22c-.88,0-22.36-15.16-23.69-15.16h-12.78c-1.32,0-8.82,6.81-8.82,6.81l3.09,2.11s4.63-4.03,5.51-4.03h6.61s5.73,0,6.61,0,22.36,15.16,23.69,15.16h12.78c1.32,0,8.82-6.81,8.82-6.81l-3.09-2.11Z"/><path class="cls-1" d="M195.57,27.95s-4.63,4.03-5.51,4.03h-13.22c-.88,0-22.36-15.16-23.69-15.16h-12.78c-1.32,0-8.82,6.81-8.82,6.81l3.09,2.11s4.63-4.03,5.51-4.03h6.61s5.73,0,6.61,0,22.36,15.16,23.69,15.16h12.78c1.32,0,8.82-6.81,8.82-6.81l-3.09-2.11Z"/><path class="cls-1" d="M232.26,27.95s-4.63,4.03-5.51,4.03h-13.22c-.88,0-22.36-15.16-23.69-15.16h-12.78c-1.32,0-8.82,6.81-8.82,6.81l3.09,2.11s4.63-4.03,5.51-4.03h6.61s5.73,0,6.61,0,22.36,15.16,23.69,15.16h12.78c1.32,0,8.82-6.81,8.82-6.81l-3.09-2.11Z"/><path class="cls-1" d="M268.95,27.95s-4.63,4.03-5.51,4.03h-13.22c-.88,0-22.36-15.16-23.69-15.16h-12.78c-1.32,0-8.82,6.81-8.82,6.81l3.09,2.11s4.63-4.03,5.51-4.03h6.61s5.73,0,6.61,0,22.36,15.16,23.69,15.16h12.78c1.32,0,8.82-6.81,8.82-6.81l-3.09-2.11Z"/><path class="cls-1" d="M305.64,27.95s-4.63,4.03-5.51,4.03h-13.22c-.88,0-22.36-15.16-23.69-15.16h-12.78c-1.32,0-8.82,6.81-8.82,6.81l3.09,2.11s4.63-4.03,5.51-4.03h6.61s5.73,0,6.61,0,22.36,15.16,23.69,15.16h12.78c1.32,0,8.82-6.81,8.82-6.81l-3.09-2.11Z"/><path class="cls-1" d="M342.33,27.95s-4.63,4.03-5.51,4.03h-13.22c-.88,0-22.36-15.16-23.69-15.16h-12.78c-1.32,0-8.82,6.81-8.82,6.81l3.09,2.11s4.63-4.03,5.51-4.03h6.61s5.73,0,6.61,0,22.36,15.16,23.69,15.16h12.78c1.32,0,8.82-6.81,8.82-6.81l-3.09-2.11Z"/><path class="cls-1" d="M379.02,27.95s-4.63,4.03-5.51,4.03h-13.22c-.88,0-22.36-15.16-23.69-15.16h-12.78c-1.32,0-8.82,6.81-8.82,6.81l3.09,2.11s4.63-4.03,5.51-4.03h6.61s5.73,0,6.61,0,22.36,15.16,23.69,15.16h12.78c1.32,0,8.82-6.81,8.82-6.81l-3.09-2.11Z"/><path class="cls-1" d="M415.71,27.95s-4.63,4.03-5.51,4.03h-13.22c-.88,0-22.36-15.16-23.69-15.16h-12.78c-1.32,0-8.82,6.81-8.82,6.81l3.09,2.11s4.63-4.03,5.51-4.03h6.61s5.73,0,6.61,0,22.36,15.16,23.69,15.16h12.78c1.32,0,8.82-6.81,8.82-6.81l-3.09-2.11Z"/><path class="cls-1" d="M452.4,27.95s-4.63,4.03-5.51,4.03h-13.22c-.88,0-22.36-15.16-23.69-15.16h-12.78c-1.32,0-8.82,6.81-8.82,6.81l3.09,2.11s4.63-4.03,5.51-4.03h6.61s5.73,0,6.61,0,22.36,15.16,23.69,15.16h12.78c1.32,0,8.82-6.81,8.82-6.81l-3.09-2.11Z"/><path class="cls-1" d="M489.09,27.95s-4.63,4.03-5.51,4.03h-13.22c-.88,0-22.36-15.16-23.69-15.16h-12.78c-1.32,0-8.82,6.81-8.82,6.81l3.09,2.11s4.63-4.03,5.51-4.03h6.61s5.73,0,6.61,0,22.36,15.16,23.69,15.16h12.78c1.32,0,8.82-6.81,8.82-6.81l-3.09-2.11Z"/><path class="cls-1" d="M525.77,27.95s-4.63,4.03-5.51,4.03h-13.22c-.88,0-22.36-15.16-23.69-15.16h-12.78c-1.32,0-8.82,6.81-8.82,6.81l3.09,2.11s4.63-4.03,5.51-4.03h6.61s5.73,0,6.61,0,22.36,15.16,23.69,15.16h12.78c1.32,0,8.82-6.81,8.82-6.81l-3.09-2.11Z"/><path class="cls-1" d="M562.46,27.95s-4.63,4.03-5.51,4.03h-13.22c-.88,0-22.36-15.16-23.69-15.16h-12.78c-1.32,0-8.82,6.81-8.82,6.81l3.09,2.11s4.63-4.03,5.51-4.03h6.61s5.73,0,6.61,0,22.36,15.16,23.69,15.16h12.78c1.32,0,8.82-6.81,8.82-6.81l-3.09-2.11Z"/><path class="cls-1" d="M599.15,27.95s-4.63,4.03-5.51,4.03h-13.22c-.88,0-22.36-15.16-23.69-15.16h-12.78c-1.32,0-8.82,6.81-8.82,6.81l3.09,2.11s4.63-4.03,5.51-4.03h6.61s5.73,0,6.61,0,22.36,15.16,23.69,15.16h12.78c1.32,0,8.82-6.81,8.82-6.81l-3.09-2.11Z"/><path class="cls-1" d="M635.84,27.95s-4.63,4.03-5.51,4.03h-13.22c-.88,0-22.36-15.16-23.69-15.16h-12.78c-1.32,0-8.82,6.81-8.82,6.81l3.09,2.11s4.63-4.03,5.51-4.03h6.61s5.73,0,6.61,0,22.36,15.16,23.69,15.16h12.78c1.32,0,8.82-6.81,8.82-6.81l-3.09-2.11Z"/><path class="cls-1" d="M672.53,27.95s-4.63,4.03-5.51,4.03h-13.22c-.88,0-22.36-15.16-23.69-15.16h-12.78c-1.32,0-8.82,6.81-8.82,6.81l3.09,2.11s4.63-4.03,5.51-4.03h6.61s5.73,0,6.61,0,22.36,15.16,23.69,15.16h12.78c1.32,0,8.82-6.81,8.82-6.81l-3.09-2.11Z"/><path class="cls-1" d="M709.22,27.95s-4.63,4.03-5.51,4.03h-13.22c-.88,0-22.36-15.16-23.69-15.16h-12.78c-1.32,0-8.82,6.81-8.82,6.81l3.09,2.11s4.63-4.03,5.51-4.03h6.61s5.73,0,6.61,0,22.36,15.16,23.69,15.16h12.78c1.32,0,8.82-6.81,8.82-6.81l-3.09-2.11Z"/><path class="cls-1" d="M745.91,27.95s-4.63,4.03-5.51,4.03h-13.22c-.88,0-22.36-15.16-23.69-15.16h-12.78c-1.32,0-8.82,6.81-8.82,6.81l3.09,2.11s4.63-4.03,5.51-4.03h6.61s5.73,0,6.61,0,22.36,15.16,23.69,15.16h12.78c1.32,0,8.82-6.81,8.82-6.81l-3.09-2.11Z"/><path class="cls-1" d="M770.48,31.98h-6.61c-.88,0-22.36-15.16-23.69-15.16h-12.78c-1.32,0-8.82,6.81-8.82,6.81l3.09,2.11s4.63-4.03,5.51-4.03h6.61s5.73,0,6.61,0,22.36,15.16,23.69,15.16h6.82v-4.89h-.43Z"/><path class="cls-1" d="M770.48,16.83h-6.39c-1.32,0-8.82,6.81-8.82,6.81l3.09,2.11s4.63-4.03,5.51-4.03h6.61s.17,0,.43,0v-4.89h-.43Z"/></svg>