<?xml version="1.0" encoding="utf-8"?>
<!-- Generator: Adobe Illustrator 28.1.0, SVG Export Plug-In . SVG Version: 6.00 Build 0)  -->
<svg version="1.1" id="Layer_1" xmlns="http://www.w3.org/2000/svg" xmlns:xlink="http://www.w3.org/1999/xlink" x="0px" y="0px"
	 viewBox="0 0 171 216" style="enable-background:new 0 0 171 216;" xml:space="preserve">
<style type="text/css">
	.st0{enable-background:new    ;}
	.st1{fill:#9A90DA;}
	.st2{fill:#8FBDB3;}
</style>
<g id="Layer_8">
	<g>
		<g class="st0">
			<path d="M-4170,450.2l5.3,2.5l-6.2,13c-0.3-0.1-0.7-0.1-1.2-0.3c-0.5-0.1-1-0.3-1.5-0.5c-1-0.5-1.6-0.9-1.9-1.5
				c-0.3-0.5-0.3-1.1,0-1.8L-4170,450.2z M-4159,457.9l-11.9-5.6l8.4-17.8c0.3-0.5,0.6-0.9,1.1-1c0.5-0.1,1.1-0.1,1.9,0.1
				c1.4,0.3,3,0.8,4.9,1.5c1.9,0.7,3.6,1.5,5.3,2.3c5.5,2.6,9.1,5.4,10.8,8.5c1.7,3,1.8,6.1,0.3,9.2c-1,2.1-2.5,3.7-4.3,4.7
				c-1.9,1-4.2,1.4-7,1.2C-4152.1,460.6-4155.3,459.6-4159,457.9z M-4164,451.2l6.3,3c3.5,1.6,6.4,2.3,8.9,2.1
				c2.5-0.2,4.2-1.5,5.3-3.9c1.1-2.3,1-4.5-0.4-6.4c-1.3-2-3.7-3.7-7.2-5.4c-1.2-0.6-2.4-1.1-3.5-1.5c-1.2-0.5-2.3-0.8-3.3-1.1
				L-4164,451.2z"/>
		</g>
	</g>
	<g>
		<g class="st0">
			<path d="M-4103,476.2c-0.7,2.7-2,4.9-3.8,6.5c-1.8,1.7-4.1,2.7-6.7,3.2c-2.7,0.5-5.6,0.3-8.8-0.6s-5.9-2.2-7.9-3.9
				c-2.1-1.7-3.5-3.8-4.3-6.1c-0.8-2.4-0.8-4.9-0.1-7.6c0.7-2.7,2-4.9,3.9-6.6c1.9-1.6,4.1-2.7,6.8-3.1c2.7-0.5,5.6-0.3,8.8,0.6
				c3.2,0.8,5.8,2.1,7.8,3.9c2.1,1.7,3.5,3.8,4.3,6.1S-4102.2,473.4-4103,476.2z M-4116.2,462.2c-3.1-0.8-5.8-0.6-8.1,0.6
				c-2.3,1.2-3.9,3.4-4.7,6.4c-0.8,3.1-0.6,5.7,0.8,7.9c1.3,2.2,3.6,3.7,6.8,4.6c3.2,0.8,5.9,0.6,8.1-0.6c2.3-1.3,3.8-3.4,4.6-6.4
				c0.8-3,0.6-5.7-0.8-7.9C-4110.8,464.6-4113,463-4116.2,462.2z"/>
		</g>
	</g>
	<g>
		<g class="st0">
			<path d="M-4087.2,502.1c-0.2,0.1-0.6,0.1-1.1,0.2c-0.5,0-1,0-1.6,0c-1-0.1-1.8-0.3-2.2-0.7c-0.5-0.4-0.7-0.9-0.6-1.7l1.2-12.8
				l5.7,0.6L-4087.2,502.1z M-4083.6,492.2c-1.7-0.6-3-1.3-3.8-1.9l0.4-4.2c0.9,0.8,2,1.5,3.4,2.2c1.4,0.7,3.1,1.1,5.2,1.3
				c3.3,0.3,6.1-0.2,8.3-1.6c2.2-1.4,3.4-3.9,3.8-7.4c0.2-2.5-0.1-4.5-1-6c-0.9-1.5-2.2-2.7-3.8-3.5c-1.6-0.8-3.4-1.3-5.4-1.5
				c-1.7-0.2-3.2-0.1-4.4,0.1c-1.2,0.2-2.3,0.5-3.3,0.8l-1.8,18.8l-5.7-0.5l1.7-18.6c0.1-0.8,0.3-1.3,0.7-1.8
				c0.4-0.4,1.1-0.8,2.2-1.2c1.3-0.4,2.9-0.8,4.8-1.1c1.8-0.3,3.9-0.3,6.2-0.1c3.2,0.3,6,1,8.4,2.2c2.5,1.2,4.4,2.9,5.7,5
				c1.3,2.2,1.8,4.8,1.5,8c-0.3,3.1-1.2,5.6-2.8,7.5c-1.6,1.9-3.6,3.3-6.1,4.1c-2.5,0.8-5.4,1-8.5,0.7
				C-4080,493.2-4081.9,492.8-4083.6,492.2z"/>
		</g>
	</g>
	<g>
		<g class="st0">
			<path d="M-4042,482.2l-5.8,0.4l-1-14.3c0.2-0.1,0.6-0.2,1.1-0.3c0.5-0.1,1-0.2,1.6-0.3c1-0.1,1.8,0,2.3,0.3
				c0.5,0.3,0.8,0.8,0.9,1.6L-4042,482.2z M-4047.6,484.8l-0.3-5.2l5.8-0.4l0.3,4.9c0.2,2.4,1.1,4.1,2.8,5c1.7,0.9,4,1.3,6.9,1.1
				c1.9-0.1,3.5-0.4,4.9-0.8c1.3-0.4,2.4-0.8,3.1-1.2l-0.7-10.2l5.8-0.4l0.7,10.1c0.1,0.8,0,1.4-0.3,1.9c-0.2,0.5-0.8,1-1.8,1.5
				c-1,0.6-2.5,1.1-4.4,1.7c-1.9,0.6-4.3,1-7,1.2c-3.2,0.2-5.9,0-8.2-0.6c-2.3-0.6-4-1.6-5.3-3.1
				C-4046.7,489.1-4047.4,487.2-4047.6,484.8z M-4019,480.7l-5.8,0.4l-1-14.3c0.2-0.1,0.6-0.2,1.1-0.3c0.5-0.1,1-0.2,1.5-0.2
				c1.1-0.1,1.8,0,2.4,0.3c0.5,0.3,0.8,0.8,0.9,1.6L-4019,480.7z"/>
		</g>
	</g>
	<g>
		<g class="st0">
			<path d="M-3999.1,476.8l-5.8,0.5l-4.5-23.6c0.2-0.1,0.6-0.3,1-0.5c0.5-0.2,1-0.3,1.5-0.4c1-0.2,1.8-0.2,2.4,0
				c0.6,0.2,0.9,0.7,1,1.4L-3999.1,476.8z M-4005.3,475.1l5.8-0.4l2.7,13.9c-0.2,0.1-0.6,0.3-1,0.5c-0.5,0.2-1,0.3-1.5,0.4
				c-1,0.2-1.8,0.2-2.4,0c-0.6-0.2-0.9-0.7-1.1-1.4L-4005.3,475.1z"/>
		</g>
	</g>
	<g>
		<g class="st0">
			<path d="M-3991.6,452.3c-0.2-0.8,0-1.5,0.5-2.2c0.5-0.7,1.3-1.2,2.3-1.5c1.1-0.3,2-0.3,2.8,0.1c0.8,0.3,1.3,0.9,1.5,1.7
				c0.2,0.8,0.1,1.5-0.4,2.2c-0.5,0.7-1.3,1.2-2.3,1.5c-1,0.3-1.9,0.3-2.8-0.1C-3990.9,453.6-3991.4,453-3991.6,452.3z
				 M-3979.4,471.4l-5.6,1.5l-3.6-12.8c0.2-0.1,0.5-0.3,1-0.5c0.5-0.2,1-0.4,1.5-0.6c1-0.3,1.7-0.3,2.3-0.1c0.6,0.2,1,0.6,1.2,1.4
				L-3979.4,471.4z M-3985.5,470.8l5.6-1.5l4,14.3c-0.2,0.1-0.5,0.3-1,0.5c-0.4,0.2-0.9,0.4-1.5,0.6c-1,0.3-1.8,0.3-2.4,0.2
				c-0.6-0.2-1-0.6-1.2-1.3L-3985.5,470.8z"/>
		</g>
	</g>
	<g>
		<g class="st0">
			<path d="M-3973.8,446.9c-0.3-0.7-0.2-1.5,0.3-2.3c0.5-0.8,1.2-1.3,2.2-1.7c1-0.4,2-0.4,2.8-0.2c0.8,0.3,1.4,0.8,1.6,1.5
				c0.3,0.7,0.2,1.5-0.2,2.2c-0.4,0.7-1.2,1.3-2.2,1.7c-1,0.4-1.9,0.4-2.8,0.2C-3972.9,448.2-3973.5,447.7-3973.8,446.9z M-3960,465
				l-5.4,2l-4.7-12.5c0.2-0.2,0.5-0.4,1-0.6c0.4-0.3,0.9-0.5,1.5-0.7c0.9-0.4,1.7-0.5,2.3-0.3c0.6,0.1,1,0.5,1.3,1.3L-3960,465z
				 M-3966.2,464.9l5.4-2l5.2,13.9c-0.2,0.2-0.5,0.4-0.9,0.6c-0.4,0.3-0.9,0.5-1.4,0.7c-0.9,0.4-1.7,0.5-2.3,0.4
				c-0.6-0.1-1-0.5-1.3-1.2L-3966.2,464.9z"/>
		</g>
	</g>
</g>
<g id="Layer_10">
	<circle class="st1" cx="125.8" cy="38.2" r="23.1"/>
	<path class="st1" d="M148.9,200.1H94.1v-64.6c0,0,0.9-58.1,54.9-63.5V200.1z"/>
	<path class="st2" d="M22,72h54.9v64.5c0,0-0.9,58.1-54.9,63.5V72z"/>
	<circle class="st2" cx="49.4" cy="38.2" r="23.1"/>
</g>
</svg>
