<?xml version="1.0" encoding="UTF-8"?>
<svg id="Layer_1" data-name="Layer 1" xmlns="http://www.w3.org/2000/svg" version="1.1" viewBox="0 0 250 250">
  <defs>
    <style>
      .cls-1 {
        fill: #13623c;
        stroke-width: 0px;
      }
    </style>
  </defs>
  <path class="cls-1" d="M218.3,125.4c-2-4.3-4.5-8.9-7.8-14.3-2.7-4.5-5.7-9-8.4-13.2-.4-.5-.8-1.2-1.3-1.9-.6-.8-1.2-1.6-1.7-2.4h-2c-1.9,0-6.3,0-13.5-.1-.2.6-.4,1.1-.6,1.6-.7,1.9-1.5,3.8-2.5,5.7,4.3,0,7.7.1,10.1.2,4.9.1,4.9.2,5.2.7,1.6,2.6,7,12,11.6,22.9,2.2,5.4,3.9,10.3,4.9,14.5,1.5,6.2,1.5,11.1.2,14.5h0s0,0,0,0c-3.6,8.7-12.2,13.7-26.3,15.2.3,3.3.5,6.9.4,10.6,0,1.5-.1,3.1-.3,4.6,11.1-1.3,20.7-5.2,27.7-11.3,5.3-4.6,9-10.7,10.6-17.3.6-2.8.7-5.8.3-9.4-.9-6.6-3-13.5-6.5-20.8Z"/>
  <path class="cls-1" d="M147.8,163c-1-.8-2-1.7-2.8-2.6-.5-.6-1-1.2-1.5-2-2,0-4,0-6,0-1.8,0-3.7,0-5.5,0,.5,1.6,1.1,3.1,1.7,4.6,2.4,5.5,7.9,11,15,15.1,2.3,1.3,4.6,2.4,6.8,3.2.6.2,1.3.5,2.2.7,3,.9,6.2,1.6,9.6,2.1.3-3.3.3-6.4.4-8.6,0-2.5,0-4.5-.1-6.3-3.9-.3-7.3-.8-10.3-1.7-3.7-1-6.7-2.5-9.3-4.6Z"/>
  <path class="cls-1" d="M106.8,157.9c-.6.9-1.2,1.8-1.8,2.4-.7.8-1.6,1.6-2.5,2.3,0,5.5,0,10.4.1,14.6,6.5-4,11.4-9.1,13.7-14.3.9-1.9,1.5-3.8,2.1-5.8.8-2.8,1.3-5.6,1.6-8.8.2-2.8.3-5.5.3-8.3,0-.9,0-1.9,0-2.8-2.4.3-4.8.7-7.1,1.1-.7,3.9-1.6,7.4-2.5,10.4-1.2,3.8-2.5,6.9-3.9,9.2Z"/>
  <path class="cls-1" d="M120.9,100.6h7.4c.2-2.5.6-4.8,1.2-7.1h-10.2c-4.5,0-8.9,0-13.3,0h-3.5c0,2.3,0,4.7,0,7.2,1,0,2.1,0,3.1,0,1.4,0,2.9,0,4.3,0h9.9s1.1,0,1.1,0Z"/>
  <path class="cls-1" d="M148.4,93.5h-3.9c-1.1,1.9-2.1,4.3-3.1,7.1,1,0,2,0,3,0,1.4,0,2.7,0,4,0,1.6,0,3.3,0,4.9,0,1.4,0,2.8,0,4.1,0,.8,0,1.6,0,2.3,0,.7,0,1.3,0,2,0,1.5-2.1,2.7-4.4,3.6-7.2-2.6,0-5.2,0-8,0-1.5,0-3,0-4.5,0-1.5,0-3,0-4.5,0Z"/>
  <path class="cls-1" d="M90.2,100.7c.5,0,1,0,1.4,0,0-1.2,0-2.5,0-3.7,0-1.2,0-2.3,0-3.5-2.9,0-5.6,0-8.3,0-6.1,0-11.6,0-16.2,0-7.7,0-12.3,0-14.2,0h-2c-.5.8-1.1,1.6-1.7,2.4-.5.7-1,1.3-1.3,1.9-2.7,4.1-5.6,8.5-8.2,12.9.8,3.5,2.1,7.5,3.9,11.8,4.3-10,9.2-18.4,10.7-20.9.3-.5.3-.6,5.2-.7,2.7,0,6.6-.1,11.7-.2,4.7,0,10.3,0,16.7-.1.8,0,1.6,0,2.5,0Z"/>
  <path class="cls-1" d="M73.1,184.7c3.1,0,6-.2,8.8-.5,3.5-.4,6.8-1.1,9.9-2,0-4.2,0-9,0-14.3-2.9.7-6.2,1.2-10,1.4-2,.1-4.1.2-6.6.2s-.5,0-.7,0c-3.7,0-6.8-.2-9.7-.5-14.7-1.4-23.6-6.4-27.3-15.2h0s0,0,0,0c-1.3-3.4-1.2-8.1.2-14.2-2.7-4.5-5-8.6-6.8-12.3-3,6.7-4.8,13-5.6,19.1-.4,3.5-.3,6.6.3,9.4,1.5,6.5,5.3,12.7,10.6,17.3,7.2,6.3,17.2,10.2,28.8,11.4,1.8.2,3.7.3,5.6.4.8,0,1.7,0,2.5,0Z"/>
  <path class="cls-1" d="M101.6,149.3c-3.1,0-6.1,0-9,0-1.5,0-2.9,0-4.3,0-1.5,2-2.7,4.4-3.6,7.2h8c1.4,0,2.9,0,4.4,0,1.5,0,3.1,0,4.6,0,1.3,0,2.6,0,3.9,0,1.1-1.9,2.1-4.3,3.1-7.1-2.4,0-4.7,0-7,0Z"/>
  <path class="cls-1" d="M143.2,92.1c.6-.9,1.2-1.7,1.8-2.4.7-.8,1.6-1.6,2.5-2.3,0-5.5,0-10.4-.1-14.6-6.5,4-11.4,9.1-13.7,14.3-.8,1.9-1.5,3.8-2.1,5.8-.8,2.8-1.3,5.6-1.6,8.8-.2,2.8-.3,5.5-.3,8.4,0,.9,0,1.9,0,2.8,1.8-.3,4.3-.6,7-1.1.7-3.9,1.6-7.4,2.5-10.5,1.2-3.8,2.5-6.9,3.9-9.2Z"/>
  <path class="cls-1" d="M135.1,122.1c-1.7,0-3.5-.1-5.1-.2,0,2.1,0,5,0,7.2,0,1.6-.3,4.7-.3,7.1,0,.2,0,.4,0,.6,0,1,0,2.1,0,3.1,0,2.6,0,5.1.2,7.6,3,0,6,0,8.9,0-.8-2.9-1.6-6.2-2.3-9.8-.5-2.8-1-5.8-1.4-8.8-.3-2.2-.3-4.7-.2-6.8Z"/>
  <path class="cls-1" d="M114.8,127.9c1.4,0,3.1.1,5.1.2,0-2.4,0-5.3,0-7.2.2-2.9.3-5.2.3-6.9,0-.3,0-.5,0-.7,0-1.1,0-2.2,0-3.2,0-2.6,0-5-.2-7.5h-.3s-8.6,0-8.6,0c.9,3,1.6,6.3,2.3,9.9.7,3.6,1.1,6.7,1.3,8.7.2,1.9.3,4.4,0,6.8Z"/>
  <path class="cls-1" d="M47.9,152.1c.4.6.8,1.2,1.3,1.9.6.8,1.2,1.6,1.7,2.4h2c1.9,0,6.5,0,13.5.1.2-.5.4-1.1.6-1.6.7-1.9,1.5-3.8,2.5-5.7-4.3,0-7.7-.1-10.1-.2-4.8-.1-4.9-.2-5.2-.7-1.6-2.6-7.1-12-11.6-23-2.2-5.4-3.9-10.2-4.9-14.5-1.5-6.2-1.5-11.1-.2-14.5h0s0,0,0,0c3.6-8.7,12.2-13.7,26.3-15.2-.3-3.3-.5-6.9-.4-10.6,0-1.5.1-3.1.3-4.6-11.1,1.3-20.7,5.2-27.7,11.3-5.3,4.6-9,10.7-10.6,17.3-.6,2.8-.7,5.8-.3,9.4.9,6.6,3,13.4,6.5,20.8,2,4.3,4.6,9,7.8,14.3,2.7,4.5,5.7,9,8.4,13.2Z"/>
  <path class="cls-1" d="M129.1,149.4h-7.4c-.2,2.5-.6,4.9-1.2,7.1h10.2c2.3,0,4.5,0,6.7,0,2.2,0,4.4,0,6.5,0s2.4,0,3.5,0c0-2.3,0-4.7,0-7.2-2.4,0-4.9,0-7.4,0-3.6,0-7.3,0-11,0Z"/>
  <path class="cls-1" d="M158.3,67.8c0,4.2,0,9,0,14.3,2.9-.7,6.2-1.2,10-1.4,2-.1,4.1-.2,6.8-.2h.4c2.4,0,6,.1,9.7.5,14.7,1.4,23.6,6.4,27.3,15.3h0s0,0,0,0c1.3,3.4,1.2,8.1-.2,14.2,2.7,4.5,5,8.6,6.8,12.3,3-6.7,4.8-12.9,5.6-19.1.4-3.5.3-6.6-.3-9.4-1.5-6.5-5.3-12.7-10.6-17.3-7.2-6.3-17.2-10.2-28.8-11.4-1.9-.2-3.8-.3-5.6-.4-.8,0-1.7,0-2.5,0-3.1,0-6,.2-8.8.5-3.5.4-6.8,1.1-9.9,2Z"/>
  <path class="cls-1" d="M102.2,87c1,.8,2,1.7,2.8,2.6.5.6,1,1.2,1.5,2,3.8,0,7.6,0,11.5,0-.5-1.5-1.1-3.1-1.7-4.6-2.4-5.5-7.9-11-15-15.1-2.3-1.3-4.6-2.4-6.8-3.2-.7-.3-1.4-.5-2.2-.7-3-.9-6.2-1.6-9.6-2.1-.2,2.6-.3,5.3-.4,8.6,0,2.4,0,4.4.1,6.3,4,.3,7.3.8,10.3,1.7,3.7,1.1,6.7,2.5,9.3,4.6Z"/>
  <path class="cls-1" d="M158.3,149.3c0,2.4,0,4.8,0,7.2h8.3c6.4,0,12,0,16.2,0,7.4,0,12.2,0,14.2,0h2c.5-.8,1.1-1.6,1.7-2.4.5-.7,1-1.3,1.3-1.9,2.7-4.1,5.6-8.5,8.2-12.9-.8-3.5-2.1-7.5-3.9-11.8-4.3,10-9.2,18.4-10.7,20.9-.3.5-.3.6-5.2.7-2.7,0-6.6.1-11.7.2-4.9,0-10.7,0-16.7.1-1.3,0-2.6,0-3.9,0Z"/>
  <path class="cls-1" d="M101,190.6c0-2.7-.1-6.6-.2-11.7,0-4.7,0-10.3-.1-16.7,0-1.3,0-2.6,0-3.9-1.2,0-2.5,0-3.7,0-1.2,0-2.3,0-3.5,0v8.3c0,6.1,0,11.6,0,16.2,0,7.4,0,12.2,0,14.2v2c.8.5,1.6,1.1,2.4,1.7.7.5,1.3,1,1.9,1.3,4.1,2.7,8.5,5.6,12.9,8.2,3.5-.8,7.5-2.1,11.8-3.9-10.1-4.4-18.4-9.2-20.9-10.7-.5-.3-.6-.3-.7-5.2Z"/>
  <path class="cls-1" d="M140,129.7c-.9,0-1.8,0-2.7,0,.3,2.4.7,4.7,1.1,7,3.9.7,7.4,1.6,10.4,2.5,3.8,1.2,6.9,2.5,9.2,3.9.9.6,1.7,1.2,2.4,1.8.8.8,1.6,1.6,2.3,2.5,5.2,0,10.2,0,14.6-.1-4-6.5-9.1-11.4-14.3-13.7-1.9-.9-3.8-1.5-5.8-2.1-2.8-.8-5.6-1.3-8.8-1.5-2.8-.2-5.5-.3-8.4-.3Z"/>
  <path class="cls-1" d="M167.5,92.9c-1.1,3.7-2.5,6.7-4.6,9.3-.8,1-1.7,2-2.6,2.8-.6.5-1.2,1-2,1.5,0,3.8,0,7.6,0,11.5,1.6-.5,3.1-1.1,4.6-1.7,5.5-2.4,11-7.9,15.1-15,1.3-2.2,2.3-4.5,3.2-6.8.3-.7.5-1.4.7-2.2.9-3,1.6-6.2,2.1-9.6-3.3-.3-6.4-.3-8.6-.4h-.4c-2.3,0-4.2,0-5.9.1-.3,4-.8,7.3-1.7,10.3Z"/>
  <path class="cls-1" d="M93.5,143.9c0,.8,0,1.5,0,2.2,0,.4,0,.9,0,1.3,2.3,0,4.7,0,7.2,0,0-2.4,0-4.9,0-7.4,0-3.6,0-7.3,0-11v-7.4c-2.5-.2-4.8-.6-7.1-1.2v10.2c0,2.3,0,4.5,0,6.7,0,2.2,0,4.4,0,6.5Z"/>
  <path class="cls-1" d="M93.5,92.6c0,1.4,0,2.9,0,4.4,0,1.5,0,3.1,0,4.6s0,1.5,0,2.2c0,.6,0,1.1,0,1.7,1.9,1.1,4.3,2.1,7.1,3.1,0-2.4,0-4.7,0-7.1,0-3.1,0-6.1,0-9,0-1.5,0-2.9,0-4.3-2.1-1.5-4.4-2.7-7.2-3.6v8Z"/>
  <path class="cls-1" d="M182.2,158.3c-3.8,0-8.8,0-14.3,0,.7,2.9,1.2,6.2,1.4,10,.1,2.1.2,4.3.2,7.2,0,2.4-.1,6-.5,9.7-1.4,14.7-6.4,23.6-15.3,27.3h0s0,0,0,0c-1.6.6-3.6.9-5.8.9s-5.2-.4-8.4-1.1c-4.6,2.8-8.6,5-12.3,6.8,6.7,3,13,4.8,19.1,5.7,1.4.2,2.7.2,4,.2,1.9,0,3.7-.2,5.4-.6,6.5-1.5,12.7-5.3,17.3-10.6,6.3-7.2,10.2-17.2,11.4-28.8.2-1.9.3-3.8.4-5.6.1-4,0-7.8-.4-11.3-.4-3.5-1.1-6.8-2-9.9Z"/>
  <path class="cls-1" d="M93.7,50.9v2c0,1.9,0,6.5-.1,13.5.6.2,1.1.4,1.6.6,1.9.7,3.8,1.5,5.7,2.5,0-4.3.1-7.7.2-10.1.1-4.8.2-4.9.7-5.2,2.6-1.6,12-7.1,22.9-11.6,5.4-2.2,10.3-3.9,14.5-4.9,3.3-.8,6.2-1.2,8.7-1.2s4.2.3,5.8.9h0s0,0,0,0c8.7,3.6,13.7,12.2,15.2,26.3,2.6-.3,5.3-.4,8-.4.8,0,1.7,0,2.6,0,1.5,0,3.1.1,4.6.3-1.3-11.1-5.2-20.7-11.3-27.7-4.6-5.3-10.7-9-17.3-10.6-1.6-.4-3.4-.6-5.4-.6-1.3,0-2.6,0-4,.2-6.6.9-13.5,3-20.8,6.5-4.3,2-9,4.6-14.3,7.8-4.5,2.8-9.2,5.8-13.2,8.4-.6.4-1.2.8-1.9,1.3-.8.6-1.6,1.2-2.4,1.7Z"/>
  <path class="cls-1" d="M122.1,115c0,1.4-.1,3-.2,5,.9,0,2,0,3,0,1.5,0,3,0,4.2.1,2,.1,4.8.3,7,.3.2,0,.5,0,.7,0h0c1,0,2.1,0,3.1,0,2.6,0,5.1,0,7.6-.2v-8.9c-3,.9-6.3,1.6-9.9,2.3-3.5.7-6.7,1.1-8.7,1.4-1.2.2-2.6.2-3.9.2s-1.9,0-2.8-.1Z"/>
  <path class="cls-1" d="M156.5,102.5c-1.1,0-2.1,0-3.2,0-1.3,0-2.6,0-3.9,0,0,2.4,0,4.9,0,7.4v11s0,7.4,0,7.4c2.5.2,4.9.6,7.1,1.2v-10.2c0-4.5,0-8.9,0-13.3,0-1.2,0-2.4,0-3.5Z"/>
  <path class="cls-1" d="M89.7,145c.6-.5,1.2-1,2-1.5,0-2,0-4,0-6,0-1.8,0-3.7,0-5.5-1.5.5-3.1,1.1-4.6,1.7-5.5,2.4-11,7.9-15.1,15-1.3,2.3-2.4,4.5-3.2,6.8-.3.8-.5,1.5-.7,2.2-.9,3-1.6,6.2-2.1,9.6,2.5.2,5.3.3,8.6.4.2,0,.4,0,.7,0,2.1,0,3.9,0,5.6-.1.3-3.9.8-7.3,1.7-10.3,1.1-3.7,2.6-6.8,4.6-9.3.8-1,1.7-2,2.6-2.8Z"/>
  <path class="cls-1" d="M67.8,91.7c4.2,0,9,0,14.3,0-.7-2.9-1.2-6.2-1.4-10-.1-2.2-.2-4.5-.2-7.2,0-3.7.2-6.8.5-9.7,1.4-14.7,6.4-23.6,15.3-27.3h0s0,0,0,0c1.6-.6,3.6-.9,5.8-.9,2.4,0,5.2.4,8.4,1.1,4.5-2.7,8.6-5,12.3-6.8-6.7-3-13-4.8-19.1-5.6-1.4-.2-2.7-.2-4-.2-1.9,0-3.7.2-5.4.6-6.5,1.5-12.7,5.3-17.3,10.6-6.3,7.2-10.2,17.2-11.4,28.8-.2,1.9-.3,3.8-.4,5.6-.1,4,0,7.8.4,11.3.4,3.5,1.1,6.8,2,9.9Z"/>
  <path class="cls-1" d="M156.3,199.1v-2c0-1.9,0-6.2.1-13.5-.6-.2-1.1-.4-1.6-.6-1.9-.7-3.8-1.5-5.7-2.5,0,4.3-.1,7.7-.2,10.1-.1,4.8-.2,4.9-.7,5.2-2.6,1.6-12,7-22.9,11.6-5.4,2.2-10.3,3.9-14.5,4.9-3.3.8-6.2,1.2-8.7,1.2s-4.2-.3-5.8-.9h0s0,0,0,0c-8.7-3.6-13.7-12.2-15.2-26.3-2.6.3-5.3.4-8.1.4s-1.7,0-2.6,0c-1.6,0-3.1-.1-4.7-.3,1.3,11.1,5.2,20.7,11.3,27.7,4.6,5.3,10.7,9,17.3,10.6,1.6.4,3.4.6,5.3.6s2.6,0,4-.2c6.6-.9,13.4-3,20.8-6.5,4.3-2,8.9-4.5,14.3-7.8,4.6-2.8,9.2-5.8,13.2-8.4.5-.4,1.2-.8,1.8-1.3.8-.6,1.6-1.2,2.4-1.7Z"/>
  <path class="cls-1" d="M110,120.3c.9,0,1.8,0,2.8,0-.2-1.8-.6-4.2-1.1-6.9-3.9-.8-7.4-1.6-10.5-2.6-3.8-1.2-6.9-2.5-9.2-3.9-.9-.6-1.7-1.2-2.4-1.8-.8-.8-1.6-1.6-2.3-2.5-5.5,0-10.4,0-14.6.1,4,6.5,9.1,11.4,14.3,13.7,1.9.8,3.8,1.5,5.8,2.1,2.8.8,5.6,1.3,8.8,1.6,2.8.2,5.5.3,8.4.3Z"/>
  <path class="cls-1" d="M156.5,157.4c0-2.9,0-5.9,0-9s0-2.6,0-3.9c-1.9-1.1-4.3-2.1-7.1-3.1,0,2.4,0,4.7,0,7,0,3.1,0,6.1,0,9,0,.8,0,1.6,0,2.4,0,.7,0,1.3,0,2,2.1,1.5,4.4,2.7,7.2,3.6,0-2.6,0-5.2,0-8Z"/>
  <path class="cls-1" d="M128.1,130c-.9,0-2,0-3.1,0s-3,0-4.1-.1c-3-.2-5.4-.3-7.1-.3h-.2s-.2,0-.2,0c0,0-.1,0-.2,0-1.1,0-2.1,0-3.2,0-2.6,0-5.1,0-7.6.2,0,3,0,6,0,8.9,2.9-.8,6.2-1.6,9.8-2.3,2.8-.5,5.8-1,8.8-1.4,1.2-.1,2.5-.2,3.9-.2s2,0,2.9.1c0-1.7.1-3.7.2-5.1Z"/>
  <path class="cls-1" d="M149,59.4c0,2.7.1,6.6.2,11.7,0,4.7,0,10.3.1,16.7,0,.8,0,1.6,0,2.4,0,.5,0,1,0,1.4,1.2,0,2.4,0,3.6,0,1.2,0,2.4,0,3.6,0,0-2.9,0-5.6,0-8.3,0-6.1,0-11.6,0-16.2,0-7.6,0-12.3,0-14.2v-2c-.8-.5-1.6-1.1-2.4-1.7-.7-.5-1.3-1-1.8-1.3-3.9-2.5-8.4-5.5-12.9-8.2-3.5.8-7.5,2.1-11.8,3.9,10,4.3,18.4,9.2,20.9,10.7.5.3.6.3.7,5.2Z"/>
</svg>